<svg xmlns="http://www.w3.org/2000/svg" viewBox="0 0 1416.36 490.91"><defs><style>.cls-1{fill:#97d700;}.cls-2{fill:#7a9a01;}</style></defs><title>Positivo_Horizontal</title><g id="Capa_2" data-name="Capa 2"><g id="Capa_1-2" data-name="Capa 1"><path class="cls-1" d="M217.57,34.27s-31,4.63-56,38.14c0,0-.4-28.24,26.45-42.94a183.44,183.44,0,0,1,29.5-12.23c.94-.28,1.89-.54,2.84-.8A64.54,64.54,0,0,0,246.81,1.27s7.32,25.39-14.19,51.6A53,53,0,0,1,215.7,66.51c-10.4,5.31-28.47,12.08-48.51,8.78C167.19,75.29,182.31,47.16,217.57,34.27Z"/><path class="cls-1" d="M156.88,99.87s-3.52-27.61-16.45-49.35l-20.56,2.94a127.63,127.63,0,0,1,22.33,42.3l10.57,6.46Z"/><path class="cls-1" d="M216.46,110.07c16.09,0,31.68,6.13,46.35,18.22l.24.2.24.19c.1.07,9.77,8.37,15.71,25.52,9.14,26.39,4.73,60.15-12.74,97.62l-.25.53-.27.68c-.32.8-32.44,79.81-90.83,79.81a74.34,74.34,0,0,1-17-2.06l-5-1.2-5,1.18a74.45,74.45,0,0,1-16.82,2c-58.59,0-90.77-78.94-91.07-79.7l-.23-.58-.3-.65C29.8,231.21,24.1,211.76,22.48,194c-1.23-13.54-.09-26.1,3.39-37.35,5.6-18.08,15.39-27,16.66-28.1l.34-.28c14.67-12.09,30.27-18.22,46.35-18.22,26.9,0,47.93,16.81,49.27,17.91l14.14,12.9L167.17,128c1.2-1,22.29-17.93,49.29-17.93m0-22c-36.72,0-63.62,23.24-63.62,23.24S126,88.08,89.22,88.08c-18.36,0-39.19,5.81-60.34,23.25,0,0-58.16,45.23-9.4,149.81,0,0,36.87,93.63,111.54,93.63a95.48,95.48,0,0,0,21.82-2.59,95,95,0,0,0,22.07,2.66c74.48,0,111.29-93.72,111.29-93.72,48.76-104.57-9.4-149.81-9.4-149.81-21.15-17.43-42-23.24-60.34-23.24Z"/><path class="cls-1" d="M575.33,0q12.42,0,20.56,8.13t8.13,21V324.66q0,12.43-8.13,20.79t-20.56,8.37q-12.45,0-20.56-8.37t-8.13-20.79V301.23l10.52,4.3q0,6.23-6.7,15.06A90.76,90.76,0,0,1,532.29,338a111.65,111.65,0,0,1-27,14.59,93.23,93.23,0,0,1-33.71,6q-33,0-59.77-17t-42.31-46.86Q354,264.89,354,226.16q0-39.19,15.54-69.09t41.84-46.86a105.32,105.32,0,0,1,58.33-17,110.56,110.56,0,0,1,37.77,6.21,113,113,0,0,1,29.88,15.78Q550,124.8,556.92,134.6t6.93,16.49l-17.21,6.22V29.17q0-12.44,8.13-20.8T575.33,0ZM478.74,306q21,0,36.82-10.52a71,71,0,0,0,24.62-28.69Q549,248.64,549,226.16q0-22.95-8.85-41.12a71.11,71.11,0,0,0-24.62-28.69q-15.78-10.51-36.82-10.52-20.57,0-36.34,10.52A71.11,71.11,0,0,0,417.78,185q-8.85,18.18-8.85,41.12,0,22.49,8.85,40.64a71,71,0,0,0,24.62,28.69Q458.18,306,478.74,306Z"/><path class="cls-1" d="M873.2,93.24q12.43,0,20.56,8.13t8.13,21V324.66q0,12.43-8.13,20.79t-20.56,8.37q-12.44,0-20.56-8.37t-8.13-20.79V301.23l10.52,4.3q0,6.23-6.69,15.06A91,91,0,0,1,830.17,338a111.54,111.54,0,0,1-27,14.59,93.23,93.23,0,0,1-33.71,6q-33,0-59.76-17t-42.32-46.86q-15.54-29.88-15.54-68.61,0-39.19,15.54-69.09t41.84-46.86a105.35,105.35,0,0,1,58.33-17,110.56,110.56,0,0,1,37.77,6.21,113.22,113.22,0,0,1,29.89,15.78q12.66,9.57,19.6,19.37t6.93,16.49l-17.21,6.22V122.4q0-12.42,8.13-20.8T873.2,93.24ZM776.62,306q21,0,36.81-10.52a71.07,71.07,0,0,0,24.63-28.69q8.84-18.17,8.84-40.64,0-22.95-8.84-41.12a71.21,71.21,0,0,0-24.63-28.69q-15.78-10.51-36.81-10.52-20.57,0-36.34,10.52A71.13,71.13,0,0,0,715.65,185q-8.85,18.18-8.84,41.12,0,22.49,8.84,40.64a71,71,0,0,0,24.63,28.69Q756.06,306,776.62,306Z"/><path class="cls-1" d="M997.51,353.82q-12.43,0-20.56-8.37t-8.13-20.79V29.17q0-12.44,8.13-20.8T997.51,0q12.42,0,20.56,8.37t8.13,20.8V324.66q0,12.43-8.13,20.79T997.51,353.82Zm152-255.8q11,0,19.12,9.08t8.13,17.69q0,11.47-11.47,21.52L1021.42,278.75l-2.4-66,109.5-105.67Q1137.59,98,1149.56,98Zm7.17,255.32a27.22,27.22,0,0,1-21-9.56l-88.45-93.71,43.51-40.17,86.06,93.72q9.07,9.57,9.09,21.51a24.91,24.91,0,0,1-9.81,20.32Q1166.3,353.34,1156.73,353.34Z"/><path class="cls-1" d="M1218.89,314.14q-4.8-6.69-4.31-17.22T1227,278.75a26,26,0,0,1,16.26-4.06q8.61.72,16.74,8.85a112.54,112.54,0,0,0,29.16,21.51q15.3,7.65,38.25,7.65a125.44,125.44,0,0,0,15.78-2.15,30.14,30.14,0,0,0,15.06-7.65q6.46-6,6.46-18.41,0-10.51-7.17-16.73t-18.89-10.52q-11.73-4.31-26.06-8.13-14.82-4.31-30.36-9.56a126.93,126.93,0,0,1-28.45-13.63,65.34,65.34,0,0,1-21-22.23q-8.13-13.86-8.13-34.91,0-23.9,13.39-40.64t34.67-25.82a112.74,112.74,0,0,1,44.7-9.08,144.38,144.38,0,0,1,31.08,3.58,121.68,121.68,0,0,1,31.08,11.48,76.73,76.73,0,0,1,24.86,20.8,33.93,33.93,0,0,1,6.22,17.21q.95,10-9.09,18.17a23.08,23.08,0,0,1-16.73,5q-9.57-.72-15.78-6.46a56.68,56.68,0,0,0-21.75-16.73q-13.63-6.21-31.32-6.22a79.22,79.22,0,0,0-15.54,1.68,30.77,30.77,0,0,0-14.59,7.17q-6.21,5.51-6.21,17.45,0,11,7.17,17.45t19.36,10.52q12.19,4.08,26.06,7.89,14.35,3.84,29.17,9.09a115.52,115.52,0,0,1,27.25,13.86,65.87,65.87,0,0,1,20.09,22.24q7.63,13.62,7.65,34.66,0,24.39-14.35,41.6a90.83,90.83,0,0,1-35.86,26.06,114.83,114.83,0,0,1-44,8.84,171.07,171.07,0,0,1-56.42-9.8Q1237.53,339,1218.89,314.14Z"/><path class="cls-2" d="M216.56,407.7v81.81H201l-40.79-49.67v49.67h-18.7V407.7h15.66l40.67,49.67V407.7Z"/><path class="cls-2" d="M303.45,481.21q-9.75-9.7-9.76-27.7V407.7h18.94v45.11q0,22,18.23,22,8.88,0,13.56-5.31t4.67-16.66V407.7h18.7v45.81q0,18-9.76,27.7t-27.29,9.7Q313.22,490.91,303.45,481.21Z"/><path class="cls-2" d="M460.47,423.13H434.29V407.7h71.29v15.43H479.4v66.38H460.47Z"/><path class="cls-2" d="M626.31,489.51l-15.78-22.79H593.12v22.79H574.19V407.7H609.6a45.51,45.51,0,0,1,18.87,3.62,27.1,27.1,0,0,1,16.66,26.06,26.68,26.68,0,0,1-16.83,25.83l18.35,26.3Zm-4.79-62.7q-4.44-3.69-13-3.68H593.12v28.51h15.43q8.52,0,13-3.74T626,437.38Q626,430.5,621.52,426.81Z"/><path class="cls-2" d="M718.52,407.7h18.94v81.81H718.52Z"/><path class="cls-2" d="M832.24,423.13H806.06V407.7h71.29v15.43H851.17v66.38H832.24Z"/><path class="cls-2" d="M946,407.7h18.94v81.81H946Z"/><path class="cls-2" d="M1059.38,485.42a40.78,40.78,0,0,1-16-15.14,43.55,43.55,0,0,1,0-43.36,40.83,40.83,0,0,1,16-15.13,50.65,50.65,0,0,1,45.87,0,41.73,41.73,0,0,1,0,73.63,50.65,50.65,0,0,1-45.87,0Zm36-14a23.9,23.9,0,0,0,9.18-9.29,29.25,29.25,0,0,0,0-27.11,23.9,23.9,0,0,0-9.18-9.29,27.32,27.32,0,0,0-26.18,0,23.81,23.81,0,0,0-9.17,9.29,29.25,29.25,0,0,0,0,27.11,23.81,23.81,0,0,0,9.17,9.29,27.39,27.39,0,0,0,26.18,0Z"/><path class="cls-2" d="M1274.83,407.7v81.81h-15.55l-40.78-49.67v49.67h-18.7V407.7h15.66l40.67,49.67V407.7Z"/></g></g></svg>