<svg xmlns="http://www.w3.org/2000/svg" viewBox="0 0 1338.56 1189.72"><defs><style>.cls-1{fill:#4e008e;}</style></defs><title>Positivo_Vertical</title><g id="Capa_2" data-name="Capa 2"><g id="Capa_1-2" data-name="Capa 1"><path class="cls-1" d="M840.67,546.93H497.81a68.48,68.48,0,0,1-67.65-79.11l46.09-293.48a67.67,67.67,0,0,1,67.17-57.44H800.59A67.36,67.36,0,0,1,867,174.56l41.59,294.21a68.57,68.57,0,0,1-67.89,78.16ZM543.42,144.62a40.07,40.07,0,0,0-39.78,34l-46.1,293.48a40.76,40.76,0,0,0,40.27,47.09H840.67a40.85,40.85,0,0,0,40.44-46.56h0L839.52,178.44a39.5,39.5,0,0,0-38.93-33.82Z"/><path class="cls-1" d="M786.92,181.31H759.2c0-42.15-10.2-81.58-28.72-111-17.26-27.44-39.55-42.56-62.74-42.56S622.27,42.84,605,70.28c-18.52,29.45-28.72,68.88-28.72,111H548.56c0-47.3,11.72-92,33-125.78C604.06,19.72,634.67,0,667.74,0s63.68,19.72,86.2,55.53C775.21,89.34,786.92,134,786.92,181.31Z"/><path class="cls-1" d="M694.92,320.89s-83.3,12.46-150.44,102.53c0,0-1.07-75.89,71.12-115.4,0,0,37.7-20.28,79.28-32.89,2.53-.76,5.09-1.47,7.65-2.14,8.41-2.22,40.47-12.12,71-40.8,0,0,19.66,68.27-38.15,138.71a142.8,142.8,0,0,1-45.5,36.68c-28,14.25-76.51,32.48-130.39,23.61C559.49,431.19,600.13,355.57,694.92,320.89Z"/><path class="cls-1" d="M278.92,633.73q15.66,0,25.91,10.24t10.24,26.51v372.3q0,15.66-10.24,26.2t-25.91,10.54q-15.68,0-25.9-10.54t-10.24-26.2v-29.52l13.25,5.42q0,7.83-8.43,19t-22.9,22a140.52,140.52,0,0,1-34,18.38,117.61,117.61,0,0,1-42.47,7.53q-41.58,0-75.31-21.39t-53.31-59Q0,967.48,0,918.68q0-49.39,19.58-87t52.71-59q33.12-21.37,73.5-21.39,25.89,0,47.59,7.83A142.78,142.78,0,0,1,231,778.91Q247,791,255.73,803.31t8.73,20.79l-21.68,7.83V670.48q0-15.66,10.24-26.21T278.92,633.73ZM157.23,1019.28q26.51,0,46.39-13.25t31-36.15q11.15-22.89,11.15-51.2,0-28.92-11.15-51.81t-31-36.15q-19.87-13.25-46.39-13.25-25.9,0-45.78,13.25t-31,36.15q-11.15,22.9-11.14,51.81,0,28.32,11.14,51.2t31,36.15Q131.32,1019.29,157.23,1019.28Z"/><path class="cls-1" d="M654.22,751.2q15.66,0,25.91,10.24T690.37,788v254.83q0,15.66-10.24,26.2t-25.91,10.54q-15.68,0-25.9-10.54t-10.24-26.2v-29.52l13.25,5.42q0,7.83-8.43,19t-22.9,22A140.34,140.34,0,0,1,566,1078a117.61,117.61,0,0,1-42.47,7.53q-41.58,0-75.31-21.39t-53.31-59q-19.59-37.64-19.58-86.44,0-49.39,19.58-87t52.71-59q33.12-21.37,73.5-21.39,25.89,0,47.59,7.83a142.62,142.62,0,0,1,37.65,19.88q16,12.06,24.7,24.4t8.73,20.79l-21.68,7.83V788q0-15.66,10.24-26.2T654.22,751.2ZM532.53,1019.28q26.51,0,46.39-13.25t31-36.15q11.14-22.89,11.15-51.2,0-28.92-11.15-51.81t-31-36.15Q559,817.47,532.53,817.47q-25.9,0-45.78,13.25t-31,36.15q-11.14,22.9-11.14,51.81,0,28.32,11.14,51.2t31,36.15Q506.63,1019.29,532.53,1019.28Z"/><path class="cls-1" d="M810.84,1079.52q-15.68,0-25.9-10.54t-10.24-26.2V670.48q0-15.66,10.24-26.21t25.9-10.54q15.66,0,25.91,10.54T847,670.48v372.3q0,15.66-10.24,26.2T810.84,1079.52Zm191.57-322.29q13.86,0,24.1,11.44T1036.75,791q0,14.46-14.46,27.11L841,984.94l-3-83.13,138-133.14Q987.34,757.24,1002.41,757.23Zm9,321.69q-15.68,0-26.51-12.05L873.5,948.8l54.81-50.61,108.44,118.08q11.45,12.06,11.45,27.11,0,15.67-12.35,25.6T1011.45,1078.92Z"/><path class="cls-1" d="M1089.76,1029.52q-6-8.43-5.42-21.69T1100,984.94a32.72,32.72,0,0,1,20.49-5.12q10.83.9,21.08,11.15,17.46,17.47,36.75,27.1t48.19,9.64a157.9,157.9,0,0,0,19.88-2.71,38,38,0,0,0,19-9.64q8.13-7.51,8.13-23.19,0-13.24-9-21.08t-23.79-13.26q-14.78-5.42-32.83-10.24-18.69-5.42-38.26-12.05a158.83,158.83,0,0,1-35.84-17.17,82.38,82.38,0,0,1-26.51-28q-10.24-17.46-10.24-44,0-30.12,16.87-51.21t43.67-32.53a142,142,0,0,1,56.33-11.45,182.11,182.11,0,0,1,39.16,4.52,153.25,153.25,0,0,1,39.16,14.46,96.88,96.88,0,0,1,31.32,26.2,42.84,42.84,0,0,1,7.83,21.69q1.2,12.66-11.44,22.89a29.11,29.11,0,0,1-21.09,6.33q-12.06-.9-19.88-8.13-10.25-13.24-27.41-21.09t-39.46-7.83a100.75,100.75,0,0,0-19.58,2.11,38.66,38.66,0,0,0-18.37,9q-7.83,6.93-7.83,22,0,13.88,9,22t24.39,13.25q15.38,5.13,32.84,9.95,18.06,4.82,36.74,11.44a146.05,146.05,0,0,1,34.34,17.47,83,83,0,0,1,25.3,28q9.63,17.17,9.64,43.68,0,30.72-18.07,52.41a114.41,114.41,0,0,1-45.18,32.83,144.57,144.57,0,0,1-55.43,11.15,215.66,215.66,0,0,1-71.08-12.35Q1113.25,1060.86,1089.76,1029.52Z"/><path class="cls-1" d="M98.56,1183.54a1.95,1.95,0,0,1-2-2v-53.65a2,2,0,0,1,2-2h7.65a1.92,1.92,0,0,1,1.4.58,1.89,1.89,0,0,1,.58,1.4v45.83h26.08a2,2,0,0,1,2.06,2.06v5.76a1.89,1.89,0,0,1-.58,1.4,2,2,0,0,1-1.48.57Z"/><path class="cls-1" d="M165.71,1184.37a29.83,29.83,0,0,1-12.59-2.43,18,18,0,0,1-8.23-7.49,26.29,26.29,0,0,1-3.21-12.63c-.06-2.36-.08-4.69-.08-7s0-4.67.08-7.08a25.38,25.38,0,0,1,3.29-12.51,19.41,19.41,0,0,1,8.35-7.57,31.45,31.45,0,0,1,24.81,0,19.35,19.35,0,0,1,8.39,7.57,25.38,25.38,0,0,1,3.29,12.51q.16,3.62.17,7.08t-.17,7a26.4,26.4,0,0,1-3.2,12.63,18.14,18.14,0,0,1-8.27,7.49A30.15,30.15,0,0,1,165.71,1184.37Zm0-9.47a12.24,12.24,0,0,0,8.72-3.16q3.38-3.16,3.62-10.33.16-3.62.16-6.71t-.16-6.62a17.84,17.84,0,0,0-1.77-7.78,10,10,0,0,0-4.32-4.36,13.88,13.88,0,0,0-6.25-1.36,13.7,13.7,0,0,0-6.18,1.36,10,10,0,0,0-4.32,4.36,17.84,17.84,0,0,0-1.77,7.78q-.08,3.54-.08,6.62t.08,6.71q.26,7.15,3.63,10.33A12.11,12.11,0,0,0,165.71,1174.9Z"/><path class="cls-1" d="M222.89,1184.37a29.86,29.86,0,0,1-12.59-2.43,18.14,18.14,0,0,1-8.23-7.49,26.4,26.4,0,0,1-3.2-12.63q-.09-3.54-.09-7t.09-7.08a25.38,25.38,0,0,1,3.29-12.51,19.41,19.41,0,0,1,8.35-7.57,28.28,28.28,0,0,1,12.38-2.55,28.6,28.6,0,0,1,12.43,2.55,19.4,19.4,0,0,1,8.39,7.57,25.38,25.38,0,0,1,3.29,12.51q.17,3.62.17,7.08t-.17,7a26.29,26.29,0,0,1-3.21,12.63,18,18,0,0,1-8.27,7.49A30.12,30.12,0,0,1,222.89,1184.37Zm0-9.47a12.22,12.22,0,0,0,8.72-3.16q3.38-3.16,3.62-10.33.17-3.62.17-6.71t-.17-6.62a17.85,17.85,0,0,0-1.76-7.78,10,10,0,0,0-4.32-4.36,13.9,13.9,0,0,0-6.26-1.36,13.69,13.69,0,0,0-6.17,1.36,10,10,0,0,0-4.32,4.36,17.84,17.84,0,0,0-1.77,7.78q-.07,3.54-.08,6.62t.08,6.71q.26,7.15,3.62,10.33A12.12,12.12,0,0,0,222.89,1174.9Z"/><path class="cls-1" d="M259.92,1183.54a1.91,1.91,0,0,1-1.4-.57,1.93,1.93,0,0,1-.58-1.4V1128a2,2,0,0,1,.58-1.48,1.92,1.92,0,0,1,1.4-.58h7.24a2,2,0,0,1,1.48.58,2,2,0,0,1,.58,1.48v19.26l18.59-19.83a5.22,5.22,0,0,1,1.11-1,3.65,3.65,0,0,1,2.1-.54h8.15a1.72,1.72,0,0,1,1.19.5,1.6,1.6,0,0,1,.54,1.23,1.52,1.52,0,0,1-.33,1l-22.63,24.85,24.19,27.24a1.65,1.65,0,0,1,.41,1.07,1.63,1.63,0,0,1-.53,1.23,1.72,1.72,0,0,1-1.19.49h-8.48a3.45,3.45,0,0,1-2.18-.61,11.68,11.68,0,0,1-1-.87l-19.91-21.8v21.31a1.89,1.89,0,0,1-.58,1.4,2,2,0,0,1-1.48.57Z"/><path class="cls-1" d="M342.94,1183.54a2,2,0,0,1-2-2V1163l-19.42-34.39a2.34,2.34,0,0,1-.16-.41,1.47,1.47,0,0,1-.09-.5,1.67,1.67,0,0,1,.5-1.23,1.58,1.58,0,0,1,1.15-.5h7.32a2.52,2.52,0,0,1,1.61.5,2.81,2.81,0,0,1,.86,1.07l14,23.94,13.9-23.94a3.92,3.92,0,0,1,.95-1.07,2.5,2.5,0,0,1,1.61-.5h7.24a1.69,1.69,0,0,1,1.72,1.73,2.81,2.81,0,0,1,0,.5.76.76,0,0,1-.2.41L352.49,1163v18.6a1.89,1.89,0,0,1-.58,1.4,2,2,0,0,1-1.48.57Z"/><path class="cls-1" d="M400.05,1184.37a29.83,29.83,0,0,1-12.59-2.43,18.09,18.09,0,0,1-8.23-7.49,26.51,26.51,0,0,1-3.21-12.63q-.07-3.54-.08-7t.08-7.08a25.48,25.48,0,0,1,3.29-12.51,19.47,19.47,0,0,1,8.35-7.57,31.45,31.45,0,0,1,24.81,0,19.37,19.37,0,0,1,8.4,7.57,25.59,25.59,0,0,1,3.29,12.51q.16,3.62.16,7.08t-.16,7a26.51,26.51,0,0,1-3.21,12.63,18.09,18.09,0,0,1-8.27,7.49A30.15,30.15,0,0,1,400.05,1184.37Zm0-9.47a12.24,12.24,0,0,0,8.72-3.16q3.38-3.16,3.62-10.33.17-3.62.17-6.71t-.17-6.62a17.84,17.84,0,0,0-1.77-7.78,10,10,0,0,0-4.32-4.36,13.85,13.85,0,0,0-6.25-1.36,13.66,13.66,0,0,0-6.17,1.36,10,10,0,0,0-4.32,4.36,17.84,17.84,0,0,0-1.77,7.78c-.06,2.36-.08,4.57-.08,6.62s0,4.3.08,6.71q.24,7.15,3.62,10.33A12.12,12.12,0,0,0,400.05,1174.9Z"/><path class="cls-1" d="M458.06,1184.37a29.45,29.45,0,0,1-12.43-2.43,17.64,17.64,0,0,1-8.14-7.49q-2.88-5.06-2.88-13V1128a2,2,0,0,1,.57-1.48,1.93,1.93,0,0,1,1.4-.58h7.49a1.9,1.9,0,0,1,1.44.58A2.08,2.08,0,0,1,446,1128v33.49q0,6.75,3.21,10t8.81,3.25q5.6,0,8.76-3.25t3.17-10V1128a2,2,0,0,1,2.06-2.06h7.4a1.9,1.9,0,0,1,1.44.58,2.09,2.09,0,0,1,.54,1.48v33.49q0,7.9-2.84,13a17.44,17.44,0,0,1-8.07,7.49A29.34,29.34,0,0,1,458.06,1184.37Z"/><path class="cls-1" d="M495.74,1183.54a2,2,0,0,1-2-2V1128a2,2,0,0,1,.58-1.48,1.91,1.91,0,0,1,1.39-.58h21.32q9.95,0,15.71,4.61t5.76,13.41a16.5,16.5,0,0,1-3,10.13,17,17,0,0,1-8,5.84l12,21a2.12,2.12,0,0,1,.25.91,1.6,1.6,0,0,1-.54,1.23,1.71,1.71,0,0,1-1.19.49h-7.49a2.87,2.87,0,0,1-2.14-.74,6.53,6.53,0,0,1-1.15-1.48l-10.61-19.5H505.21v19.75a2,2,0,0,1-.54,1.4,1.86,1.86,0,0,1-1.44.57Zm9.47-31h11.6q5,0,7.49-2.26a8.23,8.23,0,0,0,2.47-6.38,8.57,8.57,0,0,0-2.43-6.46q-2.43-2.34-7.53-2.34h-11.6Z"/><path class="cls-1" d="M570,1183.54a1.95,1.95,0,0,1-2-2V1128a2,2,0,0,1,.57-1.48,1.93,1.93,0,0,1,1.4-.58h23.86a25.26,25.26,0,0,1,10.87,2,13.82,13.82,0,0,1,6.21,5.56,16.33,16.33,0,0,1,2,8.22,12.7,12.7,0,0,1-1.11,5.48,12.18,12.18,0,0,1-2.71,3.82,15.19,15.19,0,0,1-3.17,2.31,14.52,14.52,0,0,1,5.68,4.93,13.84,13.84,0,0,1,2.47,8.23,17.39,17.39,0,0,1-2.22,8.81,15.25,15.25,0,0,1-6.59,6,23.88,23.88,0,0,1-10.78,2.18Zm9.47-34h12.91q4.36,0,6.55-2.1a7.26,7.26,0,0,0,2.18-5.47,7,7,0,0,0-2.18-5.43q-2.19-2-6.55-2H579.43Zm0,25.26h13.74q4.44,0,6.74-2.43a8.75,8.75,0,0,0,0-11.89c-1.56-1.59-3.8-2.38-6.7-2.38H579.43Z"/><path class="cls-1" d="M626.41,1183.54a1.91,1.91,0,0,1-1.4-.57,1.93,1.93,0,0,1-.58-1.4V1128a2,2,0,0,1,.58-1.48,1.92,1.92,0,0,1,1.4-.58h36.2a2,2,0,0,1,2.06,2.06v5.43a1.88,1.88,0,0,1-.58,1.4,2,2,0,0,1-1.48.58H635.54V1150H660.8a2.06,2.06,0,0,1,1.48.54,1.85,1.85,0,0,1,.58,1.44v5.1a1.86,1.86,0,0,1-.58,1.44,2.05,2.05,0,0,1-1.48.53H635.54v15.06h27.73a2,2,0,0,1,2.06,2.06v5.43a1.89,1.89,0,0,1-.58,1.4,2,2,0,0,1-1.48.57Z"/><path class="cls-1" d="M695.61,1184.37a31.81,31.81,0,0,1-12.8-2.27,18.61,18.61,0,0,1-7.81-5.92,13.8,13.8,0,0,1-2.84-7.69,1.68,1.68,0,0,1,1.73-1.73h7.32a2.42,2.42,0,0,1,1.6.45,4.71,4.71,0,0,1,1,1.11,8.44,8.44,0,0,0,1.89,3.09,10.5,10.5,0,0,0,3.83,2.51,16.57,16.57,0,0,0,6.13,1c3.95,0,6.9-.65,8.84-2a6.14,6.14,0,0,0,2.92-5.35,5,5,0,0,0-1.56-3.83,14.69,14.69,0,0,0-4.81-2.63,86.38,86.38,0,0,0-8.6-2.51,48.09,48.09,0,0,1-10.33-3.58,15.74,15.74,0,0,1-6.25-5.3,14.64,14.64,0,0,1-2.1-8.15,14.42,14.42,0,0,1,2.59-8.48,17.42,17.42,0,0,1,7.41-5.84,28.21,28.21,0,0,1,11.48-2.14,28.58,28.58,0,0,1,9.46,1.44,20.79,20.79,0,0,1,6.83,3.79,17.9,17.9,0,0,1,4.15,5,11.86,11.86,0,0,1,1.53,5.22,1.8,1.8,0,0,1-.46,1.19,1.56,1.56,0,0,1-1.27.54h-7.65a2.93,2.93,0,0,1-1.32-.33,2.4,2.4,0,0,1-1.07-1.23,6.82,6.82,0,0,0-3.21-4.36,12.34,12.34,0,0,0-7-1.82,13.65,13.65,0,0,0-7.16,1.65,6.11,6.11,0,0,0-1.36,8.93,11.13,11.13,0,0,0,4.36,2.67,79.13,79.13,0,0,0,7.94,2.47,57.63,57.63,0,0,1,11.44,3.62,15,15,0,0,1,6.5,5.23,14.45,14.45,0,0,1,2.06,8,14.86,14.86,0,0,1-2.92,9.26,18.45,18.45,0,0,1-8.19,5.88A33.61,33.61,0,0,1,695.61,1184.37Z"/><path class="cls-1" d="M742.43,1183.54a1.91,1.91,0,0,1-1.4-.57,1.93,1.93,0,0,1-.58-1.4v-45.5H725.23a1.93,1.93,0,0,1-1.4-.58,1.91,1.91,0,0,1-.57-1.4V1128a2,2,0,0,1,.57-1.48,1.93,1.93,0,0,1,1.4-.58h42a2,2,0,0,1,2,2.06v6.09a1.91,1.91,0,0,1-.57,1.4,2,2,0,0,1-1.48.58H752.06v45.5a1.93,1.93,0,0,1-.58,1.4,2,2,0,0,1-1.48.57Z"/><path class="cls-1" d="M770.9,1189.72a1.41,1.41,0,0,1-1.15-.5,1.53,1.53,0,0,1-.33-1.23l2.22-14a3.9,3.9,0,0,1,.78-1.85,2.22,2.22,0,0,1,1.85-.78h7.57a1.37,1.37,0,0,1,1.07.45,1.57,1.57,0,0,1,.42,1.11,2.44,2.44,0,0,1-.25,1.07l-5.27,13.66a4.23,4.23,0,0,1-.94,1.44,2.43,2.43,0,0,1-1.77.62Z"/><path class="cls-1" d="M814.92,1183.54a1.91,1.91,0,0,1-1.4-.57,1.93,1.93,0,0,1-.58-1.4V1128a2,2,0,0,1,.58-1.48,1.92,1.92,0,0,1,1.4-.58h36.21a2,2,0,0,1,2,2.06v5.43a1.91,1.91,0,0,1-.57,1.4,2,2,0,0,1-1.48.58H824.05V1150h25.26a2.1,2.1,0,0,1,1.49.54,1.88,1.88,0,0,1,.57,1.44v5.1a1.89,1.89,0,0,1-.57,1.44,2.09,2.09,0,0,1-1.49.53H824.05v15.06h27.73a2,2,0,0,1,2.06,2.06v5.43a1.89,1.89,0,0,1-.58,1.4,2,2,0,0,1-1.48.57Z"/><path class="cls-1" d="M880.42,1183.54a3,3,0,0,1-2.06-.65,3.79,3.79,0,0,1-1.07-1.65l-17.61-52.83a2,2,0,0,1-.16-.74,1.69,1.69,0,0,1,1.73-1.73h7.24a2.43,2.43,0,0,1,1.77.62,2.86,2.86,0,0,1,.78,1.2l13.9,42.37,13.91-42.37a2.86,2.86,0,0,1,.78-1.2,2.4,2.4,0,0,1,1.77-.62h7.24a1.7,1.7,0,0,1,1.19.5,1.6,1.6,0,0,1,.54,1.23,2,2,0,0,1-.17.74l-17.6,52.83a3.79,3.79,0,0,1-1.07,1.65,3,3,0,0,1-2.06.65Z"/><path class="cls-1" d="M921.07,1183.54a2,2,0,0,1-2-2V1128a2,2,0,0,1,.58-1.48,1.92,1.92,0,0,1,1.4-.58h36.2a2,2,0,0,1,2.06,2.06v5.43a1.92,1.92,0,0,1-.58,1.4,2,2,0,0,1-1.48.58H930.2V1150h25.26a2.07,2.07,0,0,1,1.48.54,1.85,1.85,0,0,1,.58,1.44v5.1a1.86,1.86,0,0,1-.58,1.44,2.07,2.07,0,0,1-1.48.53H930.2v15.06h27.73a2,2,0,0,1,1.48.58,2,2,0,0,1,.58,1.48v5.43a1.93,1.93,0,0,1-.58,1.4,2,2,0,0,1-1.48.57Z"/><path class="cls-1" d="M972.24,1183.54a2,2,0,0,1-2-2V1128a2,2,0,0,1,.58-1.48,1.91,1.91,0,0,1,1.39-.58h21.32q9.95,0,15.71,4.61T1015,1144a16.5,16.5,0,0,1-3,10.13,17,17,0,0,1-8,5.84l12,21a2,2,0,0,1,.25.91,1.6,1.6,0,0,1-.54,1.23,1.69,1.69,0,0,1-1.19.49h-7.49a2.89,2.89,0,0,1-2.14-.74,6.53,6.53,0,0,1-1.15-1.48l-10.61-19.5H981.71v19.75a2,2,0,0,1-.54,1.4,1.86,1.86,0,0,1-1.44.57Zm9.47-31h11.6q5,0,7.49-2.26a8.23,8.23,0,0,0,2.47-6.38,8.57,8.57,0,0,0-2.43-6.46q-2.43-2.34-7.53-2.34h-11.6Z"/><path class="cls-1" d="M1040.62,1183.54a2,2,0,0,1-2-2V1163l-19.42-34.39a2.34,2.34,0,0,1-.16-.41,1.47,1.47,0,0,1-.09-.5,1.67,1.67,0,0,1,.5-1.23,1.58,1.58,0,0,1,1.15-.5H1028a2.52,2.52,0,0,1,1.61.5,2.81,2.81,0,0,1,.86,1.07l14,23.94,13.91-23.94a3.72,3.72,0,0,1,.94-1.07,2.5,2.5,0,0,1,1.61-.5h7.24a1.69,1.69,0,0,1,1.72,1.73,2.81,2.81,0,0,1,0,.5.69.69,0,0,1-.2.41L1050.17,1163v18.6a1.89,1.89,0,0,1-.58,1.4,2,2,0,0,1-1.48.57Z"/><path class="cls-1" d="M1096.58,1183.54a2,2,0,0,1-2-2V1128a2,2,0,0,1,.58-1.48,1.92,1.92,0,0,1,1.4-.58h20.07q8.31,0,13.7,2.56a17.59,17.59,0,0,1,8.15,7.57,25.79,25.79,0,0,1,2.84,12.26q.17,3.62.16,6.42t-.16,6.33a28.15,28.15,0,0,1-2.8,12.63,16.42,16.42,0,0,1-7.94,7.41q-5.31,2.42-13.54,2.42Zm9.46-9.46h10.61a18.12,18.12,0,0,0,7.49-1.32,8.37,8.37,0,0,0,4.24-4.23,19.41,19.41,0,0,0,1.44-7.7q.08-2.46.12-4.32c0-1.23,0-2.47,0-3.7s-.07-2.65-.12-4.24q-.16-6.73-3.37-10t-10.21-3.21H1106Z"/><path class="cls-1" d="M1147.76,1183.54a1.73,1.73,0,0,1-1.2-.49,1.63,1.63,0,0,1-.53-1.23,2,2,0,0,1,.16-.74L1166,1128a3.14,3.14,0,0,1,1-1.44,2.81,2.81,0,0,1,1.93-.62h9a2.64,2.64,0,0,1,1.89.62,4,4,0,0,1,1,1.44l19.83,53.08a3.46,3.46,0,0,1,.09.74,1.67,1.67,0,0,1-.5,1.23,1.57,1.57,0,0,1-1.15.49h-7.16a2.3,2.3,0,0,1-1.69-.53,2.69,2.69,0,0,1-.69-1l-3.87-10h-24.44l-3.87,10a2.73,2.73,0,0,1-.7,1,2.29,2.29,0,0,1-1.68.53Zm16.29-21.06h18.68l-9.38-25.43Z"/><path class="cls-1" d="M1219.18,1183.54a1.91,1.91,0,0,1-1.4-.57,1.93,1.93,0,0,1-.58-1.4V1163l-19.41-34.39a2.31,2.31,0,0,1-.17-.41,1.45,1.45,0,0,1-.08-.5,1.67,1.67,0,0,1,.49-1.23,1.58,1.58,0,0,1,1.15-.5h7.33a2.47,2.47,0,0,1,1.6.5,2.94,2.94,0,0,1,.87,1.07l14,23.94,13.91-23.94a3.76,3.76,0,0,1,1-1.07,2.47,2.47,0,0,1,1.6-.5h7.24a1.69,1.69,0,0,1,1.73,1.73,2.81,2.81,0,0,1,0,.5.77.77,0,0,1-.21.41L1228.72,1163v18.6a1.92,1.92,0,0,1-.57,1.4,2,2,0,0,1-1.48.57Z"/></g></g></svg>