<svg xmlns="http://www.w3.org/2000/svg" viewBox="0 0 1848.37 812.05"><defs><style>.cls-1{fill:#fff;}.cls-2{fill:#c4c0c0;}</style></defs><title>estrellas</title><g id="Estrellas1"><path class="cls-1" d="M156.09,577.09c3.92,0,7.68-3.45,7.5-7.5a7.63,7.63,0,0,0-7.5-7.5c-3.93,0-7.68,3.45-7.5,7.5a7.62,7.62,0,0,0,7.5,7.5Z" transform="translate(-49.48 -135.96)"/><path class="cls-1" d="M389.68,456.76c3.92,0,7.68-3.45,7.5-7.5a7.62,7.62,0,0,0-7.5-7.5c-3.92,0-7.68,3.45-7.5,7.5a7.63,7.63,0,0,0,7.5,7.5Z" transform="translate(-49.48 -135.96)"/><path class="cls-1" d="M432.15,601.16c3.93,0,7.68-3.45,7.5-7.5a7.63,7.63,0,0,0-7.5-7.5c-3.92,0-7.68,3.45-7.5,7.5a7.64,7.64,0,0,0,7.5,7.5Z" transform="translate(-49.48 -135.96)"/><path class="cls-1" d="M391.1,693.18c3.92,0,7.68-3.45,7.5-7.5a7.63,7.63,0,0,0-7.5-7.5c-3.93,0-7.68,3.45-7.5,7.5a7.62,7.62,0,0,0,7.5,7.5Z" transform="translate(-49.48 -135.96)"/><path class="cls-1" d="M204.22,779.54c3.93,0,7.68-3.45,7.5-7.5a7.63,7.63,0,0,0-7.5-7.5c-3.92,0-7.68,3.45-7.5,7.5a7.63,7.63,0,0,0,7.5,7.5Z" transform="translate(-49.48 -135.96)"/><path class="cls-1" d="M92.38,914c3.92,0,7.68-3.45,7.5-7.5a7.63,7.63,0,0,0-7.5-7.5c-3.92,0-7.68,3.45-7.5,7.5a7.63,7.63,0,0,0,7.5,7.5Z" transform="translate(-49.48 -135.96)"/><path class="cls-1" d="M57,438.35c3.92,0,7.68-3.45,7.5-7.5a7.64,7.64,0,0,0-7.5-7.5c-3.93,0-7.68,3.45-7.5,7.5a7.62,7.62,0,0,0,7.5,7.5Z" transform="translate(-49.48 -135.96)"/><path class="cls-1" d="M106.54,309.52c3.92,0,7.68-3.45,7.5-7.5a7.63,7.63,0,0,0-7.5-7.5c-3.93,0-7.68,3.45-7.5,7.5a7.63,7.63,0,0,0,7.5,7.5Z" transform="translate(-49.48 -135.96)"/><path class="cls-1" d="M528.42,155.21c3.93,0,7.68-3.45,7.5-7.5a7.62,7.62,0,0,0-7.5-7.5c-3.92,0-7.68,3.45-7.5,7.5a7.63,7.63,0,0,0,7.5,7.5Z" transform="translate(-49.48 -135.96)"/><path class="cls-1" d="M493,274.13c3.92,0,7.68-3.45,7.5-7.5a7.63,7.63,0,0,0-7.5-7.5c-3.92,0-7.68,3.45-7.5,7.5a7.63,7.63,0,0,0,7.5,7.5Z" transform="translate(-49.48 -135.96)"/><path class="cls-1" d="M798.83,170.78c3.92,0,7.68-3.45,7.5-7.5a7.64,7.64,0,0,0-7.5-7.5c-3.93,0-7.69,3.45-7.5,7.5a7.63,7.63,0,0,0,7.5,7.5Z" transform="translate(-49.48 -135.96)"/><path class="cls-1" d="M847,296.78c3.92,0,7.68-3.45,7.5-7.5a7.63,7.63,0,0,0-7.5-7.5c-3.92,0-7.68,3.45-7.5,7.5a7.63,7.63,0,0,0,7.5,7.5Z" transform="translate(-49.48 -135.96)"/><path class="cls-1" d="M1243.36,168c3.93,0,7.68-3.45,7.5-7.5a7.63,7.63,0,0,0-7.5-7.5c-3.92,0-7.68,3.45-7.5,7.5a7.63,7.63,0,0,0,7.5,7.5Z" transform="translate(-49.48 -135.96)"/><path class="cls-1" d="M1215.05,369c3.92,0,7.68-3.45,7.5-7.5a7.63,7.63,0,0,0-7.5-7.5c-3.92,0-7.68,3.45-7.5,7.5a7.63,7.63,0,0,0,7.5,7.5Z" transform="translate(-49.48 -135.96)"/><path class="cls-1" d="M982.87,469.5c3.92,0,7.68-3.45,7.5-7.5a7.63,7.63,0,0,0-7.5-7.5c-3.92,0-7.68,3.45-7.5,7.5a7.63,7.63,0,0,0,7.5,7.5Z" transform="translate(-49.48 -135.96)"/><path class="cls-1" d="M1285.83,288.29c3.93,0,7.69-3.45,7.5-7.5a7.62,7.62,0,0,0-7.5-7.5c-3.92,0-7.68,3.44-7.5,7.5a7.64,7.64,0,0,0,7.5,7.5Z" transform="translate(-49.48 -135.96)"/><path class="cls-1" d="M1879,189.18c3.93,0,7.68-3.45,7.5-7.5a7.63,7.63,0,0,0-7.5-7.5c-3.92,0-7.68,3.45-7.5,7.5a7.63,7.63,0,0,0,7.5,7.5Z" transform="translate(-49.48 -135.96)"/><path class="cls-1" d="M1856.37,370.4c3.92,0,7.68-3.45,7.5-7.5a7.62,7.62,0,0,0-7.5-7.5c-3.92,0-7.68,3.45-7.5,7.5a7.63,7.63,0,0,0,7.5,7.5Z" transform="translate(-49.48 -135.96)"/><path class="cls-1" d="M1687.9,728.57c3.92,0,7.68-3.44,7.5-7.5a7.63,7.63,0,0,0-7.5-7.5c-3.92,0-7.68,3.45-7.5,7.5a7.62,7.62,0,0,0,7.5,7.5Z" transform="translate(-49.48 -135.96)"/><path class="cls-1" d="M1527.92,728.57c3.93,0,7.68-3.44,7.5-7.5a7.63,7.63,0,0,0-7.5-7.5c-3.92,0-7.68,3.45-7.5,7.5a7.63,7.63,0,0,0,7.5,7.5Z" transform="translate(-49.48 -135.96)"/><path class="cls-1" d="M1777.09,863.07c3.92,0,7.68-3.45,7.5-7.5a7.63,7.63,0,0,0-7.5-7.5c-3.92,0-7.68,3.45-7.5,7.5a7.63,7.63,0,0,0,7.5,7.5Z" transform="translate(-49.48 -135.96)"/><path class="cls-1" d="M1826.64,756.89c3.92,0,7.68-3.45,7.5-7.5a7.63,7.63,0,0,0-7.5-7.5c-3.92,0-7.68,3.45-7.5,7.5a7.63,7.63,0,0,0,7.5,7.5Z" transform="translate(-49.48 -135.96)"/><path class="cls-1" d="M1128.69,789.45c3.92,0,7.68-3.45,7.5-7.5a7.63,7.63,0,0,0-7.5-7.5c-3.92,0-7.68,3.45-7.5,7.5a7.63,7.63,0,0,0,7.5,7.5Z" transform="translate(-49.48 -135.96)"/><path class="cls-1" d="M873.86,700.26c3.92,0,7.68-3.45,7.5-7.5a7.63,7.63,0,0,0-7.5-7.5c-3.92,0-7.68,3.45-7.5,7.5a7.63,7.63,0,0,0,7.5,7.5Z" transform="translate(-49.48 -135.96)"/><path class="cls-1" d="M739.37,687.52c3.92,0,7.68-3.45,7.5-7.5a7.64,7.64,0,0,0-7.5-7.5c-3.93,0-7.69,3.45-7.5,7.5a7.63,7.63,0,0,0,7.5,7.5Z" transform="translate(-49.48 -135.96)"/><path class="cls-1" d="M687,587c3.93,0,7.68-3.45,7.5-7.5A7.63,7.63,0,0,0,687,572c-3.92,0-7.68,3.45-7.5,7.5A7.63,7.63,0,0,0,687,587Z" transform="translate(-49.48 -135.96)"/><path class="cls-1" d="M609.12,834.75c3.92,0,7.68-3.45,7.5-7.5a7.63,7.63,0,0,0-7.5-7.5c-3.92,0-7.68,3.45-7.5,7.5a7.62,7.62,0,0,0,7.5,7.5Z" transform="translate(-49.48 -135.96)"/><path class="cls-1" d="M435,948c3.93,0,7.69-3.45,7.5-7.5A7.63,7.63,0,0,0,435,933c-3.92,0-7.68,3.45-7.5,7.5A7.63,7.63,0,0,0,435,948Z" transform="translate(-49.48 -135.96)"/></g><g id="Estrellas_2" data-name="Estrellas 2"><path class="cls-2" d="M92.38,683.27c3.92,0,7.68-3.45,7.5-7.5a7.63,7.63,0,0,0-7.5-7.5c-3.92,0-7.68,3.45-7.5,7.5a7.63,7.63,0,0,0,7.5,7.5Z" transform="translate(-49.48 -135.96)"/><path class="cls-2" d="M426.49,776.71c3.92,0,7.68-3.45,7.5-7.5a7.63,7.63,0,0,0-7.5-7.5c-3.92,0-7.68,3.45-7.5,7.5a7.63,7.63,0,0,0,7.5,7.5Z" transform="translate(-49.48 -135.96)"/><path class="cls-2" d="M306.15,158c3.93,0,7.69-3.45,7.5-7.5a7.63,7.63,0,0,0-7.5-7.5c-3.92,0-7.68,3.45-7.5,7.5a7.64,7.64,0,0,0,7.5,7.5Z" transform="translate(-49.48 -135.96)"/><path class="cls-2" d="M681.32,248.64c3.92,0,7.68-3.44,7.5-7.5a7.63,7.63,0,0,0-7.5-7.5c-3.92,0-7.68,3.45-7.5,7.5a7.63,7.63,0,0,0,7.5,7.5Z" transform="translate(-49.48 -135.96)"/><path class="cls-2" d="M1890.35,697.43c3.92,0,7.68-3.45,7.5-7.5a7.63,7.63,0,0,0-7.5-7.5c-3.93,0-7.68,3.45-7.5,7.5a7.63,7.63,0,0,0,7.5,7.5Z" transform="translate(-49.48 -135.96)"/><path class="cls-2" d="M1603,151c3.92,0,7.68-3.45,7.5-7.5a7.64,7.64,0,0,0-7.5-7.5c-3.93,0-7.69,3.45-7.5,7.5a7.63,7.63,0,0,0,7.5,7.5Z" transform="translate(-49.48 -135.96)"/><path class="cls-2" d="M1349.54,230.24c3.92,0,7.68-3.45,7.5-7.5a7.63,7.63,0,0,0-7.5-7.5c-3.92,0-7.68,3.45-7.5,7.5a7.63,7.63,0,0,0,7.5,7.5Z" transform="translate(-49.48 -135.96)"/></g></svg>