<svg xmlns="http://www.w3.org/2000/svg" viewBox="0 0 1227.16 656.62"><defs><style>.cls-1{fill:#303382;}.cls-2{fill:#3f43ad;}.cls-3{fill:#ff6c2f;}</style></defs><title>Prueba Cuadricula</title><g id="Capa_2" data-name="Capa 2"><g id="Capa_1-2" data-name="Capa 1"><path class="cls-1" d="M560.07,20.46c-1.1,1-2.21,2-3.3,3.12a79.87,79.87,0,0,0-23.49,55.71,26.76,26.76,0,0,0-53.51,1V240.87a80.3,80.3,0,1,1-160.59,0,26.77,26.77,0,1,1,53.53,0,26.77,26.77,0,0,0,53.53,0V80.28a26.74,26.74,0,0,0-26.75-26.75H346A26.77,26.77,0,1,1,346,0H506.52a80,80,0,0,1,53.55,20.46Z"/><path class="cls-2" d="M908,240.87a80.29,80.29,0,1,1-160.57,0V80.28a26.76,26.76,0,0,0-53.52,0V294.4a26.77,26.77,0,0,1-53.53,0V80.28a26.77,26.77,0,0,0-53.53,0V294.4a26.77,26.77,0,0,1-53.53,0V80.28c0-.34,0-.65,0-1a79.87,79.87,0,0,1,23.49-55.71c1.09-1.08,2.2-2.12,3.3-3.12q1.36-1.22,2.79-2.4c1.27-1,2.58-2,3.89-2.94a15.68,15.68,0,0,1,1.68-1.2c.68-.45,1.35-.91,2-1.34.32-.2.64-.4.95-.61,1-.61,2-1.22,3.06-1.78S576.8,8.94,578,8.35a69.85,69.85,0,0,1,8.85-3.78,80.18,80.18,0,0,1,80.3,15.89A80.35,80.35,0,0,1,747.41,4.57a80.23,80.23,0,0,1,53.51,75.71V240.87a26.77,26.77,0,0,0,53.53,0,26.77,26.77,0,1,1,53.53,0Z"/><path class="cls-2" d="M37.39,420.86q5.32.43,7.72.43H51.8a51.32,51.32,0,0,0,8.32-.68v76.84q0,18.87-10,29.68-9.53,10.38-25.73,10.38-11.16,0-18.7-4.46A43.07,43.07,0,0,1,0,529.1V504.31l.6-.17a34.21,34.21,0,0,0,8.45,9.26A19.57,19.57,0,0,0,21.1,517q16.29,0,16.29-18.87Z"/><path class="cls-2" d="M78.82,491A51.26,51.26,0,0,1,82,473a44.85,44.85,0,0,1,9.22-15.06Q104.38,444,125.3,444t33.11,13.12q11.75,12.53,11.75,32.51t-12.09,33.1q-12.78,13.9-33.88,13.9-21.78,0-34.14-13.64Q78.82,510.58,78.82,491Zm20.84-.52a31,31,0,0,0,1.8,10.47,24.75,24.75,0,0,0,5.15,8.66q7.11,7.8,18.69,7.81,10.72,0,16.9-7.64,6-7.37,6-19.21,0-12-6.17-19.38-6.61-7.89-18.1-7.89-11.66,0-18.27,8.4Q99.66,479.45,99.66,490.5Z"/><path class="cls-2" d="M218.19,536.65q-24.18,0-36.45-8.84c.11-1.71.29-3.65.51-5.83l.78-6.17c.45-4.06.74-6.59.85-7.59a8.78,8.78,0,0,1,.26-1.63c.06-.09.52.37,1.37,1.37a21,21,0,0,0,4.89,3.64,45.25,45.25,0,0,0,8.32,3.78A65,65,0,0,0,220,518.89q14.83,0,14.84-9.86a5,5,0,0,0-2.83-4.72q-5.07-2.56-14.88-3.9a66.38,66.38,0,0,1-16.08-3.9,34.22,34.22,0,0,1-10.21-6.18q-7.29-6.76-7.29-17.75,0-13.38,10.29-21T222.05,444q17.83,0,30.45,10.12-.6,2.24-1.29,4.29-2,5.65-2.92,8.15l-2,5.06c-.11.45-.2.68-.25.68a7.22,7.22,0,0,1-1.38-1.8q-5.4-6.25-16.81-8.23a37.24,37.24,0,0,0-7.2-.69q-15.62,0-15.61,9.44a5.37,5.37,0,0,0,3.26,5q6.09,3.25,16.68,4.8T241.09,485a28.1,28.1,0,0,1,8.84,6.31Q256.09,498,256.1,509a23.75,23.75,0,0,1-9.69,19.64Q236.29,536.65,218.19,536.65Z"/><path class="cls-2" d="M329.69,527.56q-11,9.09-23.93,9.09-13.89,0-21.78-9.35-7.56-9.09-7.55-25v-34q0-17.15-.73-19.68a27,27,0,0,0-1.07-3.22q3.94.35,8.23.34H290c1.89,0,4.37-.08,7.46-.25v49.66q0,17.67,9.61,20.49a22.09,22.09,0,0,0,6.34.86,20.23,20.23,0,0,0,16.3-7.37V445.73H351v78.65a61.74,61.74,0,0,0,.69,11h-22Z"/><path class="cls-2" d="M374,491.28a49.56,49.56,0,0,1,3.43-18.61,45.62,45.62,0,0,1,9.69-15q13.38-13.64,35-13.64,18.27,0,29.33,12.09,10.89,11.67,10.89,29.34,0,6.76-1,9.26-8.58,2.4-34.91,2.4H396.25a22.55,22.55,0,0,0,10.37,14.28q8.14,5.1,21.19,5.1,13.63,0,23.41-4.89a18.15,18.15,0,0,0,3.86-2.4c-.11,2.4-.26,4.86-.43,7.38L453.71,530q-6.52,4.45-21.1,6.17a67.73,67.73,0,0,1-8.23.52q-21.79,0-36-12.7T374,491.28Zm65.53-10.81Q436,462,419.49,462q-13,0-19.81,11.24a29.18,29.18,0,0,0-3.18,7.54c1.37.06,3.06.12,5.06.17h6.35q3.16.09,6.09.09h4.89q4.37,0,8.57-.09l7-.25C436.39,480.67,438.07,480.58,439.56,480.47Z"/><path class="cls-2" d="M564.52,535.88a153.34,153.34,0,0,0-15.87-.52h-6.86V421q5.49.35,12.09.34a44.29,44.29,0,0,0,9.35-.68l28.82,49,27.71-49q2.73.67,10.46.68t13.21-.34V535.36h-6.87a153.23,153.23,0,0,0-15.86.52V459L592.65,509.2l-28.13-46.14Z"/><path class="cls-2" d="M730.39,530q-12.18,6.62-22,6.61a67.38,67.38,0,0,1-16.9-1.85,34.65,34.65,0,0,1-11.92-5.44q-9.94-7.29-9.94-21.1,0-12.36,12.17-20.58,13.22-8.93,35.85-8.93l3.43.09c.69.06,1.46.1,2.32.13a19,19,0,0,1,2.32.21q-.69-13.71-11.84-16a37.86,37.86,0,0,0-7.85-.78,45.83,45.83,0,0,0-8.15.73,64.22,64.22,0,0,0-7.76,1.93q-8.31,2.67-11.92,6.09l-.26-.17L675.33,452a70.25,70.25,0,0,1,33.19-8q28,0,35.77,20.16a39.86,39.86,0,0,1,2.48,14.49v31.05q0,9.94,7,13.55l-15.53,14.24A20.2,20.2,0,0,1,730.39,530Zm-4.63-35.42a26.78,26.78,0,0,0-4.8-.43h-3.43q-19,0-24.1,8.41a9.77,9.77,0,0,0-1.55,5.23,11.26,11.26,0,0,0,1,4.85,8,8,0,0,0,3.3,3.47q4.46,2.57,13.25,2.57a33.56,33.56,0,0,0,16.43-4.2c-.06-.63-.09-1.29-.09-2Z"/><path class="cls-2" d="M793.78,525.76a81.4,81.4,0,0,0,.34,9.6H772.76V445.73h21v6.61q7.29-8.32,15.31-8.32t12.65,2l-1.55,23.07-.34.26q-3-5.31-12.44-5.32a13.36,13.36,0,0,0-7.33,2.45,21.29,21.29,0,0,0-6.3,6.47Z"/><path class="cls-2" d="M872,516.49q11.06,0,15.18-5.74h.68l.26,19.89q-4.2,4.22-15.61,5.58a58.32,58.32,0,0,1-7.68.43,32.64,32.64,0,0,1-10-1.72,21.9,21.9,0,0,1-9.13-5.57q-7.8-8-7.8-25V465.46H825c-.06-1.66-.09-3.34-.09-5.06V447.19a4.54,4.54,0,0,1,.09-1.46h13V421.29h21v24.44h23.58v19.73H859v35q0,13.47,7.46,15.36A20.69,20.69,0,0,0,872,516.49Z"/><path class="cls-2" d="M902.79,420.18a137.78,137.78,0,0,1,14.32-18.87l18.44,14.49q-3.69,4.54-6.86,8.92l-6.6,9.35Zm22.55,105.58a80.59,80.59,0,0,0,.35,9.6H903.9V445.73h21.44Z"/><path class="cls-2" d="M972.09,524.38a61.74,61.74,0,0,0,.69,11H951.25V445.73h20.84v7.64Q983.42,444,996.28,444q14.06,0,22.47,9.56t8.4,25.17v34.14q0,14.49.43,17.41a8.46,8.46,0,0,0,1.16,3.78c.48.57.9,1.08,1.24,1.54l-.17.34c-4.63-.4-8-.6-10.12-.6h-6c-1.84,0-4.29.09-7.38.26V488.88q0-25.14-15.27-25.13-11.31,0-18.95,11.66Z"/><path class="cls-2" d="M1047.91,491.28a49.56,49.56,0,0,1,3.43-18.61,45.3,45.3,0,0,1,9.69-15Q1074.41,444,1096,444q18.27,0,29.34,12.09,10.89,11.67,10.89,29.34,0,6.76-1,9.26-8.58,2.4-34.91,2.4h-30.19a22.6,22.6,0,0,0,10.38,14.28q8.14,5.1,21.18,5.1,13.63,0,23.42-4.89a18.69,18.69,0,0,0,3.86-2.4q-.18,3.6-.43,7.38l-.94,13.38q-6.52,4.45-21.1,6.17a67.89,67.89,0,0,1-8.24.52q-21.78,0-36-12.7T1047.91,491.28Zm65.52-10.81Q1109.92,462,1093.36,462q-13,0-19.81,11.24a29.51,29.51,0,0,0-3.17,7.54c1.37.06,3.06.12,5.06.17h6.35q3.17.09,6.08.09h4.89q4.38,0,8.58-.09l7-.25C1110.26,480.67,1112,480.58,1113.43,480.47Z"/><path class="cls-2" d="M1154.69,449.77l-.17-4H1227l-43.74,72.48H1217q7.54,0,10.21-2.15l-5.66,20.59c-2.52-.17-5.55-.32-9.09-.43l-10.64-.52q-9.86-.33-18.61-.34-19.38,0-36.11,1.29l44.86-74.11h-21.27q-9.95,0-16.3,2.23.35-6.67.35-10.37Z"/><path class="cls-3" d="M143.38,588.89v66.78H133.17L96.34,610.45v45.22H84V588.89h10.2l36.83,45.22V588.89Z"/><path class="cls-3" d="M192.32,648.85q-7.73-7.79-7.73-22.28V588.89H197v37.2q0,19.67,17,19.66t16.88-19.66v-37.2h12.22v37.68q0,14.5-7.68,22.28t-21.52,7.77Q200.05,656.62,192.32,648.85Z"/><path class="cls-3" d="M296.6,599.38H274.46V588.89h56.67v10.49H309v56.29H296.6Z"/><path class="cls-3" d="M408,655.67l-13.64-19.56c-.57.06-1.43.1-2.58.1H376.74v19.46h-12.4V588.89h27.47a36.92,36.92,0,0,1,15.12,2.86,21.92,21.92,0,0,1,9.88,8.2,22.94,22.94,0,0,1,3.43,12.69,22.63,22.63,0,0,1-3.67,13A21.88,21.88,0,0,1,406,633.73l15.36,21.94Zm-4.48-52.86q-4.2-3.43-12.31-3.43h-14.5V626h14.5q8.11,0,12.31-3.48t4.19-9.88Q407.74,606.25,403.55,602.81Z"/><path class="cls-3" d="M457.93,588.89h12.4v66.78h-12.4Z"/><path class="cls-3" d="M524.85,652.19a32.7,32.7,0,0,1-12.78-12.26,35.79,35.79,0,0,1,0-35.3A32.9,32.9,0,0,1,525,592.37a37.57,37.57,0,0,1,18.27-4.44,38.27,38.27,0,0,1,15,2.86,30.71,30.71,0,0,1,11.45,8.3l-8,7.54a23.38,23.38,0,0,0-17.84-7.82,25.07,25.07,0,0,0-12.31,3,21.77,21.77,0,0,0-8.49,8.35,25.59,25.59,0,0,0,0,24.23,21.64,21.64,0,0,0,8.49,8.35,25.08,25.08,0,0,0,12.31,3,23.24,23.24,0,0,0,17.84-7.92l8,7.63a30.65,30.65,0,0,1-11.5,8.3,38.45,38.45,0,0,1-15,2.86A37.7,37.7,0,0,1,524.85,652.19Z"/><path class="cls-3" d="M605.42,588.89h12.4v66.78h-12.4Z"/><path class="cls-3" d="M672.49,652.19a32.81,32.81,0,0,1-12.88-12.31,35.45,35.45,0,0,1,0-35.21,32.79,32.79,0,0,1,12.88-12.3,40.41,40.41,0,0,1,36.83,0,32.9,32.9,0,0,1,12.88,12.26,35.69,35.69,0,0,1,0,35.3,33,33,0,0,1-12.88,12.26,40.49,40.49,0,0,1-36.83,0Zm30.43-9.45a21.71,21.71,0,0,0,8.4-8.39,25.41,25.41,0,0,0,0-24.14,21.8,21.8,0,0,0-8.4-8.4,25.58,25.58,0,0,0-24,0,21.78,21.78,0,0,0-8.39,8.4,25.33,25.33,0,0,0,0,24.14,21.68,21.68,0,0,0,8.39,8.39,25.51,25.51,0,0,0,24,0Z"/><path class="cls-3" d="M823.23,588.89v66.78H813L776.2,610.45v45.22H763.89V588.89H774.1l36.82,45.22V588.89Z"/><path class="cls-3" d="M865,588.89h12.4v66.78H865Z"/><path class="cls-3" d="M925.08,654.43a31.06,31.06,0,0,1-11.41-5.82L918,639a33.69,33.69,0,0,0,10.06,5.3,36.58,36.58,0,0,0,12,2.05q7.44,0,11.11-2.39a7.22,7.22,0,0,0,3.67-6.29,6.1,6.1,0,0,0-2-4.73,14.26,14.26,0,0,0-5.2-2.9q-3.15-1.05-8.58-2.39A100.1,100.1,0,0,1,926.6,624a20.3,20.3,0,0,1-8.11-5.67q-3.39-3.87-3.38-10.45a17.82,17.82,0,0,1,3-10.06,20.24,20.24,0,0,1,9.06-7.21A36.77,36.77,0,0,1,942,587.93a47.79,47.79,0,0,1,12,1.53,33,33,0,0,1,10.21,4.39l-3.91,9.63a38.54,38.54,0,0,0-9.16-3.91,34.32,34.32,0,0,0-9.26-1.34c-4.89,0-8.54.83-10.92,2.48a7.68,7.68,0,0,0-3.58,6.59,5.93,5.93,0,0,0,2.05,4.67,14.83,14.83,0,0,0,5.2,2.87q3.15,1,8.59,2.38a91.12,91.12,0,0,1,12.21,3.58,20.88,20.88,0,0,1,8.16,5.68q3.39,3.81,3.39,10.3a17.63,17.63,0,0,1-3,10,20.4,20.4,0,0,1-9.11,7.15A37.07,37.07,0,0,1,940,656.62,51,51,0,0,1,925.08,654.43Z"/><path class="cls-3" d="M1015.76,599.38H993.63V588.89h56.67v10.49h-22.14v56.29h-12.4Z"/><path class="cls-3" d="M1123.47,640.21h-33.39l-6.58,15.46h-12.79l30.06-66.78H1113l30.15,66.78h-13Zm-4.1-9.73-12.59-29.19-12.5,29.19Z"/></g></g></svg>