<svg xmlns="http://www.w3.org/2000/svg" xmlns:xlink="http://www.w3.org/1999/xlink" viewBox="0 0 1424.06 634.54"><defs><style>.cls-1{fill:none;}.cls-2{fill:#3a7327;}.cls-3{fill:#ea1912;}.cls-4{clip-path:url(#clip-path);}.cls-5{fill:#fff;}</style><clipPath id="clip-path"><path class="cls-1" d="M719,354.27l.18-57a101.58,101.58,0,0,0,26.63-30.36c.92-22.93-1.15-59.83-5.33-106.52h-8v73H724v-73h-8.52V233.9h-6.9V160.39h-8.52v73h-8.53v-73h-8c-4.17,46.7-6.25,83.6-5.32,106.53a101.58,101.58,0,0,0,26.63,30.36l.18,57Z"/></clipPath></defs><title>Positivo_Vertical</title><g id="Capa_2" data-name="Capa 2"><g id="Capa_1-2" data-name="Capa 1"><path class="cls-2" d="M0,519.92V408.62H17.17v111.3Zm14.31-33.71-1-19.24,58.35-58.35H94.29Zm59.47,33.71L31.17,463l12.72-11,51.36,67.89Z"/><path class="cls-2" d="M137.22,521.51a33.05,33.05,0,0,1-18.84-5.72,41.05,41.05,0,0,1-13.59-15.58,47.78,47.78,0,0,1-5.09-22.27,47.16,47.16,0,0,1,5.16-22.34,39.58,39.58,0,0,1,14-15.34,36.33,36.33,0,0,1,19.79-5.57,35.71,35.71,0,0,1,11.93,1.91,30,30,0,0,1,9.46,5.33,30.56,30.56,0,0,1,6.68,7.87,24.72,24.72,0,0,1,3.26,9.54l-3.66-1.27V436.44h16.54v83.48H166.32V500.05l3.82-1.12a22.54,22.54,0,0,1-3.9,8.35,31.45,31.45,0,0,1-7.47,7.24,40.35,40.35,0,0,1-10,5.08A34.65,34.65,0,0,1,137.22,521.51Zm4.3-15.1a23.93,23.93,0,0,0,13.19-3.66,25.21,25.21,0,0,0,9-10.1A32.14,32.14,0,0,0,167,477.94a31.29,31.29,0,0,0-3.26-14.46,25.38,25.38,0,0,0-9-10,23.93,23.93,0,0,0-13.19-3.66,23.28,23.28,0,0,0-13,3.66,25.5,25.5,0,0,0-8.91,10,31.29,31.29,0,0,0-3.26,14.46,32.14,32.14,0,0,0,3.26,14.71,25.33,25.33,0,0,0,8.91,10.1A23.28,23.28,0,0,0,141.52,506.41Z"/><path class="cls-2" d="M198.76,452.34v-15.9h53.11v15.9Zm17.33,67.58V415.14h16.38V519.92Z"/><path class="cls-2" d="M266.81,519.92V402.26h16.38v51.36l-2.86,1.9a23.84,23.84,0,0,1,6.2-10.25,36.84,36.84,0,0,1,11-7.63,30.79,30.79,0,0,1,13-2.95q9.54,0,15.9,3.74A22.88,22.88,0,0,1,336,449.8q3.18,7.63,3.18,19.24v50.88H322.78V470.15a31.45,31.45,0,0,0-1.91-11.84,13,13,0,0,0-5.88-6.84,18.43,18.43,0,0,0-9.86-1.83,24.34,24.34,0,0,0-8.74,1.51,21.2,21.2,0,0,0-6.92,4.22,19.75,19.75,0,0,0-4.61,6.28,18,18,0,0,0-1.67,7.71v50.56H266.81Z"/><path class="cls-2" d="M400.38,521.51A46.49,46.49,0,0,1,377.56,516,40.52,40.52,0,0,1,362,501a42.28,42.28,0,0,1-5.64-21.94,48.86,48.86,0,0,1,3.18-18A43.06,43.06,0,0,1,368.33,447a38.76,38.76,0,0,1,13.52-9.22,44.09,44.09,0,0,1,17.09-3.26,36.84,36.84,0,0,1,15.11,3.1,37.78,37.78,0,0,1,12.16,8.5,37.2,37.2,0,0,1,8,12.8,43.23,43.23,0,0,1,2.63,16.14l-.16,7H368.41l-3.65-13h57.72l-2.39,2.7v-3.81a18.36,18.36,0,0,0-3.5-9.38,21.7,21.7,0,0,0-17.65-8.91q-8.58,0-14.47,3.26a21,21,0,0,0-8.9,9.54q-3,6.29-3,15.5a30.21,30.21,0,0,0,3.66,15.19,24.88,24.88,0,0,0,10.33,9.94,32.77,32.77,0,0,0,15.42,3.5,31.54,31.54,0,0,0,11.53-2.07A40.44,40.44,0,0,0,425,497l8.27,11.61a37.61,37.61,0,0,1-9.3,6.68,57.82,57.82,0,0,1-11.61,4.53A45.25,45.25,0,0,1,400.38,521.51Z"/><path class="cls-2" d="M454.6,519.92V436.44h16.53v26.24l-1.59-6.36a29.31,29.31,0,0,1,6-11,32.1,32.1,0,0,1,9.7-7.79,24.22,24.22,0,0,1,11.36-2.87,26.93,26.93,0,0,1,5.17.48,19.21,19.21,0,0,1,3.9,1.11l-4.3,17.81a27.76,27.76,0,0,0-4.21-1.35,19.36,19.36,0,0,0-4.53-.56,20.65,20.65,0,0,0-8.19,1.67,21.74,21.74,0,0,0-6.84,4.62,22.89,22.89,0,0,0-4.69,6.83,20.5,20.5,0,0,0-1.75,8.51v46.11Z"/><path class="cls-2" d="M529.33,418q-5.25,0-8.11-2.7c-1.91-1.81-2.86-4.35-2.86-7.64a10,10,0,0,1,2.94-7.47,11,11,0,0,1,8-2.86q5.25,0,8.11,2.7c1.91,1.8,2.86,4.35,2.86,7.63a10,10,0,0,1-2.94,7.48A11.06,11.06,0,0,1,529.33,418Zm-8,101.92V436.44h16.38v83.48Z"/><path class="cls-2" d="M562.88,519.92V436.44h16.38v17.18l-2.86,1.9a23.84,23.84,0,0,1,6.2-10.25,36.84,36.84,0,0,1,11-7.63,30.76,30.76,0,0,1,13-2.95q9.54,0,15.9,3.74a22.88,22.88,0,0,1,9.54,11.37q3.18,7.63,3.18,19.24v50.88H618.85V470.15a31.65,31.65,0,0,0-1.91-11.84,13,13,0,0,0-5.88-6.84,18.43,18.43,0,0,0-9.86-1.83,24.3,24.3,0,0,0-8.74,1.51,21.1,21.1,0,0,0-6.92,4.22,19.75,19.75,0,0,0-4.61,6.28,17.87,17.87,0,0,0-1.67,7.71v50.56H562.88Z"/><path class="cls-2" d="M696.44,521.51A46.48,46.48,0,0,1,673.63,516,40.52,40.52,0,0,1,658,501a42.28,42.28,0,0,1-5.64-21.94,48.86,48.86,0,0,1,3.18-18A43.06,43.06,0,0,1,664.4,447a38.76,38.76,0,0,1,13.52-9.22A44.09,44.09,0,0,1,695,434.54a36.84,36.84,0,0,1,15.11,3.1,37.78,37.78,0,0,1,12.16,8.5,37.2,37.2,0,0,1,8,12.8,43.23,43.23,0,0,1,2.63,16.14l-.16,7H664.48l-3.65-13h57.72l-2.39,2.7v-3.81a18.36,18.36,0,0,0-3.5-9.38A21.7,21.7,0,0,0,695,449.64q-8.58,0-14.47,3.26a21,21,0,0,0-8.9,9.54q-3,6.29-3,15.5a30.1,30.1,0,0,0,3.66,15.19,24.88,24.88,0,0,0,10.33,9.94,32.77,32.77,0,0,0,15.42,3.5,31.54,31.54,0,0,0,11.53-2.07A40.44,40.44,0,0,0,721.09,497l8.27,11.61a37.8,37.8,0,0,1-9.3,6.68,57.82,57.82,0,0,1-11.61,4.53A45.26,45.26,0,0,1,696.44,521.51Z"/><path class="cls-2" d="M832.08,519.92l-44.53-111.3h19.56l26.56,67.58q1.91,4.92,3.42,8.9c1,2.65,1.88,5.06,2.62,7.23s1.43,4.22,2.07,6.13,1.27,3.81,1.9,5.72l-4.13.16q1.11-3.81,2.39-7.95t2.94-9.06q1.67-4.93,4-11.13l24.65-67.58h20l-44.84,111.3Z"/><path class="cls-2" d="M931.46,521.51a33.06,33.06,0,0,1-18.85-5.72A41.05,41.05,0,0,1,899,500.21a47.9,47.9,0,0,1-5.09-22.27,47,47,0,0,1,5.17-22.34,39.55,39.55,0,0,1,14-15.34,36.34,36.34,0,0,1,19.8-5.57,35.65,35.65,0,0,1,11.92,1.91,29.86,29.86,0,0,1,9.46,5.33A30.36,30.36,0,0,1,961,449.8a24.56,24.56,0,0,1,3.26,9.54l-3.66-1.27V436.44h16.54v83.48H960.55V500.05l3.82-1.12a22.36,22.36,0,0,1-3.89,8.35,31.69,31.69,0,0,1-7.48,7.24,40.35,40.35,0,0,1-10,5.08A34.59,34.59,0,0,1,931.46,521.51Zm4.29-15.1a24,24,0,0,0,13.2-3.66,25.19,25.19,0,0,0,9-10.1,32.14,32.14,0,0,0,3.26-14.71,31.29,31.29,0,0,0-3.26-14.46,25.36,25.36,0,0,0-9-10,24,24,0,0,0-13.2-3.66,23.28,23.28,0,0,0-13,3.66,25.55,25.55,0,0,0-8.9,10,31.16,31.16,0,0,0-3.26,14.46,32,32,0,0,0,3.26,14.71,25.38,25.38,0,0,0,8.9,10.1A23.28,23.28,0,0,0,935.75,506.41Z"/><path class="cls-2" d="M1027.81,521.51a47.05,47.05,0,0,1-18.92-3.66,35.07,35.07,0,0,1-14-10.81L1006,497.5a29.16,29.16,0,0,0,10.42,8,31.53,31.53,0,0,0,12.8,2.47,18.9,18.9,0,0,0,5.32-.72,12.68,12.68,0,0,0,4.3-2.15,9.68,9.68,0,0,0,2.78-3.41,10.1,10.1,0,0,0,.95-4.38,8.34,8.34,0,0,0-3-6.68,25.78,25.78,0,0,0-5-2.46,80.85,80.85,0,0,0-8.82-2.78,73.84,73.84,0,0,1-15.11-5.41,28.48,28.48,0,0,1-9.06-6.84,20.25,20.25,0,0,1-3.5-6.59A26.51,26.51,0,0,1,997,458.7a20.3,20.3,0,0,1,2.3-9.62,24.46,24.46,0,0,1,6.36-7.63,29.5,29.5,0,0,1,9.54-5,38.49,38.49,0,0,1,11.69-1.75,44.5,44.5,0,0,1,11.69,1.59,41.49,41.49,0,0,1,10.73,4.62,32.18,32.18,0,0,1,8.27,7.15l-9.38,10.34a40.12,40.12,0,0,0-6.6-5.33,34,34,0,0,0-7.24-3.58,20.69,20.69,0,0,0-6.67-1.27,26.12,26.12,0,0,0-6.05.64,13.22,13.22,0,0,0-4.53,1.9,8.39,8.39,0,0,0-2.78,3.18,9.47,9.47,0,0,0-1,4.3,10.74,10.74,0,0,0,1,3.89,8.64,8.64,0,0,0,2.46,3.1,26.37,26.37,0,0,0,5.25,2.71,61.61,61.61,0,0,0,8.9,2.7,74.85,74.85,0,0,1,13.12,4.53,27.49,27.49,0,0,1,8.19,5.65,16.44,16.44,0,0,1,4.45,7,29.09,29.09,0,0,1,1.28,8.91,21.42,21.42,0,0,1-4.06,12.8,27.29,27.29,0,0,1-10.89,8.82A35.79,35.79,0,0,1,1027.81,521.51Z"/><path class="cls-2" d="M1137.05,554.9V500.05h3.18a13.35,13.35,0,0,1-2.54,7.55,29.23,29.23,0,0,1-6.84,6.92,37.24,37.24,0,0,1-9.54,5.08,31.21,31.21,0,0,1-10.81,1.91,37,37,0,0,1-20.2-5.64,39.9,39.9,0,0,1-14.07-15.43,47,47,0,0,1-5.17-22.34,47.73,47.73,0,0,1,5.09-22.34,39.56,39.56,0,0,1,13.91-15.42,36.3,36.3,0,0,1,20-5.65,34.44,34.44,0,0,1,11.85,2.07,40.48,40.48,0,0,1,10.17,5.41,28.51,28.51,0,0,1,7.16,7.39,15,15,0,0,1,2.62,8.19l-4.77.32V436.28h16.38V554.9Zm-24.8-48.49a23.93,23.93,0,0,0,13.19-3.66,25.38,25.38,0,0,0,9-10,31.65,31.65,0,0,0,3.26-14.63,32.2,32.2,0,0,0-3.26-14.71,25.25,25.25,0,0,0-9-10.09,23.93,23.93,0,0,0-13.19-3.66,23.59,23.59,0,0,0-13.2,3.74,25.82,25.82,0,0,0-9,10.17,34.1,34.1,0,0,0,0,29.1,25.21,25.21,0,0,0,9,10.1A23.94,23.94,0,0,0,1112.25,506.41Z"/><path class="cls-2" d="M1205.58,521.51a28.62,28.62,0,0,1-15.5-4.13,27.27,27.27,0,0,1-10.18-11.61,41,41,0,0,1-3.58-17.81V436.44h16.38v47.07a31.59,31.59,0,0,0,2.31,12.64,18,18,0,0,0,6.68,8.19,18.85,18.85,0,0,0,10.57,2.86,22.7,22.7,0,0,0,8.43-1.51,20,20,0,0,0,6.6-4.21,19.42,19.42,0,0,0,4.37-6.52,21.31,21.31,0,0,0,1.59-8.27V436.44h16.38v83.48h-16.38V502.43l2.86-1.91a27.77,27.77,0,0,1-6.44,10.66,33.56,33.56,0,0,1-10.73,7.55A32.36,32.36,0,0,1,1205.58,521.51Z"/><path class="cls-2" d="M1311.48,521.51a46.52,46.52,0,0,1-22.82-5.48,40.5,40.5,0,0,1-15.58-15,42.29,42.29,0,0,1-5.65-21.94,48.86,48.86,0,0,1,3.18-18,43.08,43.08,0,0,1,8.83-14.07A38.67,38.67,0,0,1,1293,437.8a44.06,44.06,0,0,1,17.09-3.26,36.76,36.76,0,0,1,15.1,3.1,37.15,37.15,0,0,1,20.12,21.3,43.23,43.23,0,0,1,2.62,16.14l-.16,7h-68.21l-3.66-13h57.72l-2.38,2.7v-3.81a18.45,18.45,0,0,0-3.5-9.38,21.7,21.7,0,0,0-17.65-8.91q-8.6,0-14.47,3.26a21,21,0,0,0-8.91,9.54q-3,6.29-3,15.5a30.21,30.21,0,0,0,3.66,15.19,24.9,24.9,0,0,0,10.34,9.94,32.77,32.77,0,0,0,15.42,3.5,31.61,31.61,0,0,0,11.53-2.07,40.57,40.57,0,0,0,11.53-7.48l8.26,11.61a37.43,37.43,0,0,1-9.3,6.68,57.82,57.82,0,0,1-11.61,4.53A45.19,45.19,0,0,1,1311.48,521.51Z"/><path class="cls-2" d="M1362.2,519.92V506.25l43.09-57.56v1.91H1362.2V436.44h60.9V449.8l-42.45,56.77-.64-.8h44v14.15Z"/><path class="cls-3" d="M190.93,577.13v56.44H180.21L152.07,599.3v34.27h-12.9V577.13H150L178,611.4V577.13Z"/><path class="cls-3" d="M250.88,627.84q-6.74-6.69-6.73-19.1V577.13h13.06v31.12q0,15.16,12.58,15.16,6.12,0,9.35-3.67c2.15-2.45,3.22-6.27,3.22-11.49V577.13h12.9v31.61q0,12.4-6.73,19.1t-18.82,6.7Q257.61,634.54,250.88,627.84Z"/><path class="cls-3" d="M359.2,587.77H341.14V577.13h49.19v10.64H372.26v45.8H359.2Z"/><path class="cls-3" d="M473.61,633.57l-10.88-15.72h-12v15.72H437.65V577.13h24.43a31.36,31.36,0,0,1,13,2.5,19.32,19.32,0,0,1,8.5,7.09,19.57,19.57,0,0,1,3,10.89A18.39,18.39,0,0,1,475,615.43l12.66,18.14Zm-3.3-43.26q-3.07-2.53-8.95-2.54H450.72v19.68h10.64q5.88,0,8.95-2.59a10.18,10.18,0,0,0,0-14.55Z"/><path class="cls-3" d="M537.23,577.13h13.06v56.44H537.23Z"/><path class="cls-3" d="M615.4,630.79a28,28,0,0,1-11-10.4,30.34,30.34,0,0,1,0-30.08,28,28,0,0,1,11-10.4,32.53,32.53,0,0,1,15.68-3.75,32.88,32.88,0,0,1,13.26,2.58,26.55,26.55,0,0,1,10,7.42l-8.39,7.74a18,18,0,0,0-14.19-6.61,18.75,18.75,0,0,0-9.35,2.3A16.26,16.26,0,0,0,616,596a20.15,20.15,0,0,0,0,18.7,16.33,16.33,0,0,0,6.41,6.41,18.86,18.86,0,0,0,9.35,2.3,17.93,17.93,0,0,0,14.19-6.69l8.39,7.74a26.14,26.14,0,0,1-10,7.5,33.18,33.18,0,0,1-13.3,2.58A32.38,32.38,0,0,1,615.4,630.79Z"/><path class="cls-3" d="M703.4,577.13h13.06v56.44H703.4Z"/><path class="cls-3" d="M781.65,630.75a28.16,28.16,0,0,1-11-10.45,28.78,28.78,0,0,1,11-40.35,34.93,34.93,0,0,1,31.65,0,28.59,28.59,0,0,1,11,10.44,28.81,28.81,0,0,1-11,40.36,34.93,34.93,0,0,1-31.65,0Zm24.87-9.64a16.46,16.46,0,0,0,6.33-6.41,20.15,20.15,0,0,0,0-18.7,16.39,16.39,0,0,0-6.33-6.41,18.88,18.88,0,0,0-18.06,0,16.39,16.39,0,0,0-6.33,6.41,20.15,20.15,0,0,0,0,18.7,16.46,16.46,0,0,0,6.33,6.41,18.88,18.88,0,0,0,18.06,0Z"/><path class="cls-3" d="M930.29,577.13v56.44H919.56L891.42,599.3v34.27h-12.9V577.13h10.81l28.06,34.27V577.13Z"/><path class="cls-3" d="M984,577.13h13.06v56.44H984Z"/><path class="cls-3" d="M1056.35,632.72a30.17,30.17,0,0,1-10-4.72l4.43-9.83a30.12,30.12,0,0,0,8.63,4.27,32.22,32.22,0,0,0,10,1.61q5.57,0,8.22-1.65a5,5,0,0,0,2.66-4.39,4.2,4.2,0,0,0-1.57-3.35,11.92,11.92,0,0,0-4-2.14q-2.46-.79-6.65-1.77a91.91,91.91,0,0,1-10.56-3.06,17.08,17.08,0,0,1-7.06-4.92,13.3,13.3,0,0,1-2.94-9,15.66,15.66,0,0,1,2.66-8.91,17.91,17.91,0,0,1,8-6.33,32.72,32.72,0,0,1,13.1-2.34,43.52,43.52,0,0,1,10.57,1.29,31.39,31.39,0,0,1,9,3.71l-4,9.92a31.41,31.41,0,0,0-15.64-4.44c-3.65,0-6.35.6-8.1,1.78a5.4,5.4,0,0,0-2.62,4.67,4.58,4.58,0,0,0,3,4.32,47.32,47.32,0,0,0,9.23,2.78,92.16,92.16,0,0,1,10.57,3.06,17.5,17.5,0,0,1,7,4.84c2,2.2,3,5.19,3,8.95a15.44,15.44,0,0,1-2.71,8.83,18.16,18.16,0,0,1-8.1,6.33,33,33,0,0,1-13.14,2.34A46.13,46.13,0,0,1,1056.35,632.72Z"/><path class="cls-3" d="M1153.38,587.77h-18.06V577.13h49.19v10.64h-18.06v45.8h-13.07Z"/><path class="cls-3" d="M1266.18,621.47H1240l-5,12.1H1221.6l25.15-56.44h12.9l25.24,56.44h-13.71Zm-4.11-9.91-9-21.61-8.95,21.61Z"/><path class="cls-3" d="M713.35,343.84c-.45,0-.89,0-1.32,0s-.87,0-1.32,0h0c-11.64,0-25.7-9.8-47-32.78-47-48-69.89-83-79.16-120.88l0-.22c-10.57-50.76,7.37-85.32,53.34-102.73l2.58-1,2.5,1.19c12.65,6,25.43,9.06,38,9.06a84.63,84.63,0,0,0,28.92-5.26l2.22-.81,2.21.81a84.72,84.72,0,0,0,28.92,5.26c12.56,0,25.34-3,38-9.06l2.5-1.19,2.59,1c46,17.41,63.91,52,53.34,102.73l-.05.22c-9.27,37.84-32.21,72.87-79.16,120.88C739,334,725,343.84,713.35,343.84Z"/><path d="M783.93,93.3c40.1,15.19,59.84,44.64,49.28,95.33-9.69,39.59-34.78,74.23-77.55,118-16.37,17.65-31.35,30.76-42.31,30.76-.36,0-.72,0-1.07,0h-.5c-.35,0-.71,0-1.07,0-11,0-25.94-13.11-42.31-30.76-42.77-43.73-67.86-78.37-77.56-118-10.55-50.69,9.18-80.14,49.28-95.33q20.4,9.69,40.77,9.69A90.68,90.68,0,0,0,712,97.34,90.62,90.62,0,0,0,743.16,103q20.39,0,40.77-9.69m-.58-14.1-5,2.38C766.59,87.17,754.75,90,743.16,90a78.23,78.23,0,0,1-26.7-4.87L712,83.53l-4.43,1.61A78.29,78.29,0,0,1,680.89,90c-11.58,0-23.42-2.84-35.19-8.43l-5-2.38-5.17,2c-23.64,9-40.6,22.48-50.4,40.21-10.39,18.79-12.74,42.31-7,69.91l0,.22.06.22c5.09,20.78,14.31,40.93,28.21,61.58,12.48,18.56,29.18,38.34,52.55,62.24,22.93,24.71,37.92,34.79,51.71,34.79l1.32,0,1.32,0c13.79,0,28.78-10.08,51.71-34.79,23.36-23.9,40.06-43.68,52.55-62.24,13.89-20.65,23.12-40.8,28.21-61.58l.06-.22,0-.22c5.75-27.6,3.4-51.12-7-69.91-9.81-17.73-26.76-31.26-50.4-40.21l-5.18-2Z"/><path class="cls-2" d="M681.11,94.79c-33.23,0-59.91-17.52-73.2-48.05l-3.13-7.19,7.65-1.73a117.15,117.15,0,0,1,25.71-3.09c32.2,0,55.91,16.33,70.47,48.52l3.32,7.35L704,92.28A111.32,111.32,0,0,1,681.11,94.79Z"/><path d="M638.14,41.22c29.11,0,50.86,14.43,64.56,44.71a104.37,104.37,0,0,1-21.59,2.37c-31,0-55-15.92-67.25-44.15a110.56,110.56,0,0,1,24.28-2.93m0-13v0h0A123.38,123.38,0,0,0,611,31.49l-15.3,3.45L602,49.33c14.37,33,43.22,52,79.15,52a116.83,116.83,0,0,0,24.28-2.66l15.78-3.35-6.65-14.69c-7.75-17.15-18.18-30.29-31-39.07s-28.13-13.27-45.4-13.27Z"/><path class="cls-2" d="M743.68,95.52a119.36,119.36,0,0,1-24.91-2.84L710.92,91l3.3-7.32c14.68-32.55,38.58-49.06,71-49.06a119.21,119.21,0,0,1,26.4,3.22l8,1.83L816,47C800.35,79.19,776,95.52,743.68,95.52Z"/><path d="M785.24,41.09a111.81,111.81,0,0,1,25,3.06C795.36,74.62,773.13,89,743.68,89a111.93,111.93,0,0,1-23.54-2.7c13.2-29.28,34.39-45.24,65.1-45.24m0-13h0c-17.81,0-33.5,4.72-46.63,14C726.14,51,715.94,64.06,708.3,81l-6.6,14.63L717.4,99a125.66,125.66,0,0,0,26.28,3c17.38,0,32.84-4.44,46-13.2s23.88-21.83,32.23-39L829,35.15l-15.91-3.66a125.54,125.54,0,0,0-27.85-3.38Z"/><path d="M716.11,65.68c.4-3,5.7-41.24,16.54-58a4.77,4.77,0,0,0,.4-4.59c-1-2.21-3.15-4.55-7.17-1.94a4.68,4.68,0,0,0-1.41,1.46C721.8,6.9,709.9,27.88,705.56,67.22a4.89,4.89,0,0,0,0,.54v9.15a4.77,4.77,0,0,0,5.17,4.75l.42,0a4.77,4.77,0,0,0,4.37-4.5l.58-11.07C716.08,65.93,716.09,65.81,716.11,65.68Z"/><g class="cls-4"><path class="cls-5" d="M713.35,344.84c-.45,0-.89,0-1.32,0s-.87,0-1.32,0h0c-11.64,0-25.7-9.8-47-32.78-47-48-69.89-83-79.16-120.88l0-.22c-10.57-50.76,7.37-85.32,53.34-102.73l2.58-1,2.5,1.19c12.65,6,25.43,9.06,38,9.06a84.63,84.63,0,0,0,28.92-5.26l2.22-.81,2.21.81a84.72,84.72,0,0,0,28.92,5.26c12.56,0,25.34-3,38-9.06l2.5-1.19,2.59,1c46,17.41,63.91,52,53.34,102.73l-.05.22c-9.27,37.84-32.21,72.87-79.16,120.88C739,335,725,344.84,713.35,344.84Z"/><path class="cls-5" d="M783.93,94.3c40.1,15.19,59.84,44.64,49.28,95.33-9.69,39.59-34.78,74.23-77.55,118-16.37,17.65-31.35,30.76-42.31,30.76-.36,0-.72,0-1.07,0h-.5c-.35,0-.71,0-1.07,0-11,0-25.94-13.11-42.31-30.76-42.77-43.73-67.86-78.37-77.56-118-10.55-50.69,9.18-80.14,49.28-95.33q20.4,9.69,40.77,9.69A90.68,90.68,0,0,0,712,98.34,90.62,90.62,0,0,0,743.16,104q20.39,0,40.77-9.69m-.58-14.1-5,2.38C766.59,88.17,754.75,91,743.16,91a78.23,78.23,0,0,1-26.7-4.87L712,84.53l-4.43,1.61A78.29,78.29,0,0,1,680.89,91c-11.58,0-23.42-2.84-35.19-8.43l-5-2.38-5.17,2c-23.64,9-40.6,22.48-50.4,40.21-10.39,18.79-12.74,42.31-7,69.91l0,.22.06.22c5.09,20.78,14.31,40.93,28.21,61.58,12.48,18.56,29.18,38.34,52.55,62.24,22.93,24.71,37.92,34.79,51.71,34.79l1.32,0,1.32,0c13.79,0,28.78-10.08,51.71-34.79,23.36-23.9,40.06-43.68,52.55-62.24,13.89-20.65,23.12-40.8,28.21-61.58l.06-.22,0-.22c5.75-27.6,3.4-51.12-7-69.91-9.81-17.73-26.76-31.26-50.4-40.21l-5.18-2Z"/></g></g></g></svg>