<svg xmlns="http://www.w3.org/2000/svg" viewBox="0 0 1733.48 554.11"><defs><style>.cls-1{fill:#fff;}</style></defs><title>MACVASLOGO</title><g id="Capa_2" data-name="Capa 2"><g id="Capa_1-2" data-name="Capa 1"><path d="M.48,554q861.06-113,1733,0l-639-249-855.95,95.4Z"/><path d="M1482.22,120.74c1.17,3.68,3.4,5.14,5.32,6.8q31.95,27.66,64,55.26c.39.34.8.65,1.21,1,4.85,3.82,7.41,8.48,8.48,14.9,4.83,28.81,10.35,57.5,15.58,86.24q8.26,45.4,16.45,90.82c3.73,20.6,7.55,41.19,11.09,61.84.8,4.66,3,7.84,6.57,10.82q56.52,46.69,112.8,93.67c2.78,2.31,5.47,4.73,8.18,7.13,1,.86,2,1.81,1.44,3.27-.72,1.82-2.38,1.72-3.94,1.59-1.29-.11-2.57-.26-3.85-.47-32.9-5.39-65.76-11.05-98.71-16.1-27.84-4.27-55.78-7.94-83.7-11.69-22.53-3-45.08-6-67.66-8.62-21.3-2.52-42.64-4.66-64-6.92-17.47-1.85-34.94-3.75-52.42-5.4-15.69-1.48-31.42-2.63-47.12-3.93-11.07-.91-22.14-1.87-33.21-2.73-3.61-.27-7.24-.37-10.85-.37q-397.35,0-794.7-.05c-16.06,0-32,1.63-47.95,2.91-9.79.78-19.59,1.49-29.37,2.36-13.89,1.23-27.77,2.58-41.66,3.88-11.83,1.12-23.67,2.14-35.49,3.39q-34.68,3.66-69.35,7.55c-22.85,2.6-45.7,5.17-68.5,8.18-28.18,3.72-56.35,7.59-84.44,11.94C65,542.83,33.71,548.29,2.34,553.46a11.27,11.27,0,0,1-2.3-.12c-.37-2.7,1.83-3.57,3.3-4.81q18.95-16,38-32Q81.13,483.14,121,449.75c.6-.5,1.13-1.08,1.76-1.53,3.28-2.39,4.92-5.42,5.65-9.61,6-34.63,12.27-69.22,18.5-103.82q8.94-49.6,17.95-99.2t17.7-99.23q5.66-31.68,11.34-63.35c.18-1,.3-2,.53-3.59-1.76-1.89-3.62-4-5.6-6Q161.14,35.66,133.45,7.91c-1.79-1.79-3.46-3.71-5.73-6.15a19.3,19.3,0,0,1,3.92-1.3c2.32-.17,4.65-.08,7-.08L827,.41q128.82,0,257.65,0c8.78,0,17.57,1,26.32.73,48.61-1.71,97.25-1.24,145.84-.52,56.9.84,113.78.34,170.67.58s113.83.06,170.74.07h6.52c1.39,1.83.62,2.85-.31,3.81q-2.43,2.51-4.89,5L1544.68,65c-1.28,1.28-2.51,2.61-3.84,3.83a6.38,6.38,0,0,0-2.07,6.3q1.34,7.25,2.64,14.49,2.41,13.36,4.81,26.72c.18,1,.15,2,.25,3.54a22.65,22.65,0,0,1-4.37.78c-10.84-.21-21.69-.59-32.54-.78-7.76-.14-15.52-.12-23.28-.07A20.82,20.82,0,0,0,1482.22,120.74ZM237.86,56.27l-9.62,53.65q-8.13,45.39-16.29,90.8t-16.3,90.8q-8.91,49.61-17.8,99.2-6.36,35.49-12.63,71a11,11,0,0,1-4.25,7.07c-5.25,4.2-10.38,8.55-15.5,12.9-.83.71-2.35,1.31-1.26,3.19q39.56-7,79.22-14.08a19.12,19.12,0,0,0,3.22-1.23q7.26-42.29,14.52-84.69,7.28-42.8,14.44-85.62c4.8-28.28,9.57-56.57,14.48-84.83,4.94-28.48,9.46-57,14.83-86.11a52.18,52.18,0,0,1,4.4,2.83c4.81,3.92,9.54,8,14.35,11.87,1.35,1.1,2.88,2,4.43,3.05,2.21-1.47,4.15-2.71,6-4,6.34-4.46,12.65-9,19-13.41.94-.65,1.91-1.89,3.74-.31-1.34,8.86-2.7,18-4.13,27.19s-2.95,18.37-4.43,27.55-3,18.37-4.45,27.56q-2.26,14.16-4.52,28.33-2.19,13.77-4.35,27.56c-1.44,9.2-2.85,18.39-4.29,27.59s-2.89,18.38-4.35,27.56-2.95,18.38-4.44,27.56-3,18.37-4.45,27.55q-2.26,14.17-4.52,28.33c-1.46,9.19-3.09,18.36-4.3,27.58s-3.67,18.09-3.75,27.5a10.46,10.46,0,0,0,2.65.42q39.54-5.54,79.06-11.16c.38-.06.69-.63,1.42-1.34-4.85-4.6-11.31-7-16-11.27C353,427,406.35,61.43,408.6,54.38c2.58-1.84,5.38-3.71,8-5.77s6.13-3.55,8.33-6.52c-.78-.53-1.18-1.05-1.58-1.06q-34.9-.09-69.81-.07a9.17,9.17,0,0,0-2.52.88q-1.32,6.57-2.71,13.5L319.57,76c-7.81-6.59-15-13.51-21.88-20.16-.76-5.25,2.41-9.65.76-14.29-5.35-.82-59-1.34-70.62-.66a21.42,21.42,0,0,0-3.4.88C228.42,47.2,233.5,50.89,237.86,56.27Zm1105.77,114c2.22,15.72,4.28,30.52,6.4,45.31s4.32,29.67,6.49,44.5l6.39,43.74q3.27,22.25,6.52,44.49c2.16,14.84,4.42,29.66,6.41,44.52s4.63,29.5,6.13,44.41c-5,3.14-9.58,6-14.14,8.94-1,.65-2.39,1.21-1.56,3.37,74.78,9.93,149.47,21.88,225.15,36a44.14,44.14,0,0,0-3.65-4.13c-5.14-4.33-10.26-8.7-15.58-12.81a11.06,11.06,0,0,1-4.52-7.75c-.2-1.54-.5-3.06-.77-4.59q-11.13-61.41-22.26-122.83c-7-38.4-14.08-76.77-20.84-115.2a19.47,19.47,0,0,0-6.91-12.34q-57.21-48.9-114.2-98.06c-3.32-2.86-7.46-5.33-9.49-8.94s-2-8.44-2.72-12.77c-.39-2.48-1.28-5,0-7.72,3.22-1.15,6.6-.54,9.91-.49q45,.68,90,1.42c2.51,0,5.18.77,7.71-1.09-1-6.75-2.11-13.6-3.17-20.4,4.33-4.34,8.36-8.33,12.34-12.38.84-.85,2.07-1.68.94-3.8-65.86.11-132-.25-198.16.19-.34,0-.67.59-1.32,1.2a35.92,35.92,0,0,0,2.79,2.38c3.38,2.38,6.7,4.88,10.26,7,3.9,2.29,5.65,5.39,6.22,9.93,1.79,14.36,4.14,28.65,6,43a9.68,9.68,0,0,0,4,7.11c1.05.76,2,1.64,3,2.47q57.36,48.74,114.69,97.48c7.26,6.18,7.12,6.27,8.66,15.48q7.23,43.2,14.55,86.4,9.39,55.43,18.83,110.84a35.34,35.34,0,0,1,.22,3.61c-8,0-48.17-6-54.26-8.14-.8-4.84-1.67-9.91-2.49-15q-5.14-32.14-10.26-64.31-5.77-36.39-11.52-72.76c-1.91-12-3.93-24-5.76-36a10.06,10.06,0,0,0-3.62-6.53q-31.31-26.67-62.52-53.44A30.27,30.27,0,0,0,1343.63,170.29ZM405.88,304.11l.42,1.44c9-.67,18-1.3,27-2s18-1.57,27.05-2.26,17.93-.69,27.14-2.61c2.38-20.58,4.94-40.81,7-61.09,2.86-28.08,6.37-55.92,8.06-60.46,8.59-3.09,44.49-12,50.37-12.45,1.05,3,.25,6.09,0,9.12q-2,20.46-4.15,40.89-1.92,18.9-3.88,37.8c-1.24,12.09-2.51,24.17-3.64,36.27-.2,2.19-1.1,4.61,1,7C568,294.4,594,293.05,620,291.65a11.49,11.49,0,0,0,2.56-.89c-2.59-3.18-6-4.53-8.75-6.64s-6.29-3.56-8.6-6.6q2.19-27.54,4.38-54.93c1.48-18.29,3-36.58,4.55-54.87q2.31-27.83,4.63-55.65c1.55-18.24,3.21-36.48,4.45-54.79-5.17-4.11-10.19-7.77-14.81-11.88-3.92-3.5-8.16-4.68-13.37-4.66-35.69.17-71.38.09-107.06.09a31.32,31.32,0,0,0-4.65.09A10.86,10.86,0,0,0,479,42.27c-7.69,5.19-15.28,10.54-22.88,15.81-.81,6.25-1.54,12.13-2.33,18Q447.13,126,440.44,176q-7.19,54.18-14.18,108.4c-.43,3.38-1.63,5.74-4.43,7.64-4.27,2.92-8.36,6.09-12.5,9.18C408.13,302.12,407,303.14,405.88,304.11ZM1230.4,165.33c2.9,23.19,5.21,45.28,7.87,67.32s4.77,44.1,7.86,65.86c4.92,1.06,73.39,6.85,80,6.78.3,0,.6-.62,1.61-1.74a26.26,26.26,0,0,1-2.6-1.49c-4.62-3.32-9.11-6.84-13.85-10a9.72,9.72,0,0,1-4.6-7.6c-.35-3.34-.78-6.68-1.22-10q-3.49-26.53-7-53.06-3.43-26.14-6.85-52.29-3.56-26.91-7.14-53.82c-2.26-17.17-4.47-34.35-6.76-51.52-.27-2-.86-4-1.32-6.11-6-4.22-12-8.2-17.75-12.63a20.72,20.72,0,0,0-13.61-4.3c-32.59.16-65.19.08-97.78.08-4.14,0-8.28.09-12.42,0a10.43,10.43,0,0,0-7.13,2.44c-4.64,3.72-9.41,7.28-14.08,11-1.38,1.09-2.59,2.4-3.87,3.61,1.47,18.56,2.89,36.86,4.37,55.15s3,36.59,4.53,54.89c1.54,18.56,3,37.12,4.62,55.67,1.54,18.26,3.26,36.5,4.4,54.59-5.71,4.09-11,7.84-16.2,11.61a1.07,1.07,0,0,0-.37.63,4.67,4.67,0,0,0,.22,1.07c5.28.33,10.66.71,16,1s10.85.49,16.28.77,10.84.67,16.26,1,10.86.66,16.28.68,10.66,1.61,16.54.38c-1.14-13.73-2.6-27-4-40.36-1.38-13.12-2.51-26.26-3.84-39.38-1.35-13.3-3-26.58-3.83-40.42ZM781.4,73.5c0,5.93.07,10.83,0,15.72-.09,5.17-.42,10.33-.49,15.5-.06,4.83-1.22,9.7.27,14.84a45.56,45.56,0,0,0,5.48-.49q25-5.43,50-11a28.77,28.77,0,0,0,4.27-1.73q.42-26.11.81-51.11c5.39-5.16,11.89-8,17.18-13.59a21.8,21.8,0,0,0-3.64-.74q-97.73.07-195.46.24c-.37,0-.74.61-1.37,1.16C662.8,47,668.8,49.83,673.54,55q-7.37,110.64-14.75,221.63c-6.09,4.24-11.81,8.21-17.52,12.2a.86.86,0,0,0-.34.59,4.28,4.28,0,0,0,.42,1.14c1.84,0,3.85.06,5.85,0,17.06-.56,34.11-1.36,51.17-1.7,44.21-.88,88.42-1.57,132.62-2.32,7.76-.13,15.52-.13,23.27-.26a30.49,30.49,0,0,0,4.56-.94,167.57,167.57,0,0,0-14.25-9.82c-3.66-2.26-5.8-4.93-5.05-9.44a31.31,31.31,0,0,0,.1-4.65q.46-46.93.92-93.86c0-2.8-.09-5.61-.15-8.77-1.83.22-3.08.27-4.3.53q-26.88,5.8-53.77,11.71a16.54,16.54,0,0,0-3.37,1.63c-.12,2.07-.28,3.87-.33,5.67-.61,21.71-1.18,43.42-1.84,65.13-.07,2.49.62,5.21-1.72,7.78l-16.68.27c-5.69.1-11.37.32-17.06.29s-11.24,1.16-17.41-.2c.08-19.89,1.68-39.44,2.37-59q1.07-29.84,2.8-59.65c1.17-19.53,1.23-39.14,3.23-59.1C748.72,73.21,764.65,73.21,781.4,73.5Zm290,142.74q-5.34-80.36-10.72-161.45c4.34-3.4,8.41-6.56,12.45-9.76.95-.75,2.25-1.4,1.45-3-6.44-.39-12.87-1-19.31-1.11-16.55-.16-33.11-.08-49.66,0a25.64,25.64,0,0,0-4.73,1q3.79,81.43,7.53,161.75c-7.42,7.63-20.42,18.2-25.8,21q-12.74-10.37-25.69-20.94c-.43-11.16-.93-22-1.25-32.84-.77-26.63-1.45-53.26-2.2-79.89q-.6-21.72-1.34-43.44c-.06-2-.44-3.93-.71-6.2-2.78-.16-5.06-.41-7.34-.41-22,0-44-.33-65.91.8a18.83,18.83,0,0,0-3.19.87c5,5.15,11.16,7.75,15.38,12.19,1.52,53.46.39,106.48,2.7,159.54,30.61,24.27,60.47,49,90.88,72.72C990.62,283.16,1063.57,224.14,1071.41,216.24ZM653.44,329c-1,6-2,11.55-3,17.12Q640.91,397.54,631.38,449a50.63,50.63,0,0,0-.36,6.32c4.6.67,8.73.35,12.83.4s8.28.1,12.41,0,8.18.57,12.51-.7c3.63-19.76,5.94-39.47,9.46-58.79,6.75-1.6,22.32-1.53,28.15.12-.49,4.27-.94,8.61-1.51,12.94-1.74,13.33-3.57,26.65-5.26,40-.25,1.93-1,4.07.58,5.82,10,1.27,31.93.94,37-.57a11.34,11.34,0,0,0,.65-2.12q2.5-25.08,5-50.18,1.86-18.92,3.7-37.83c1.49-15.18,3-30.37,4.44-45.55a25.25,25.25,0,0,0-.27-4.21c-8.85-1.14-27.14-1-33.17.34-2,7.84-2.23,16.12-3.57,24.22-1.38,8.34-1.67,16.87-3.58,24.95-8.74,1.19-21.45,1-27.18-.48,1.22-8.09,2.61-16.23,3.62-24.41s3.28-16.14,3.17-24.69a44.38,44.38,0,0,0-4.88-.61q-18.63-.06-37.25,0a21.19,21.19,0,0,0-3.09.18c-1.81.26-2.58,1.48-2.8,3.19a4,4,0,0,0,1.49,4.11C646.55,323.72,649.61,326.07,653.44,329Zm578.4,110.61c-.4-1.81-.64-3.32-1.07-4.77q-4.15-14.12-8.4-28.2c-7.13-23.73-14.34-47.43-21.33-71.2a14.45,14.45,0,0,0-5.94-8.62c-4.71-3.17-9.22-6.64-13.73-10.1a12.24,12.24,0,0,0-7.81-2.79c-22,.08-43.91,0-65.86.07-1.49,0-3.16-.26-4.24,1.58a12.76,12.76,0,0,0,.12,2.06q14.51,67,29.07,133.92a23.26,23.26,0,0,0,1.93,4.23h76.17c1,0,2.07-.06,3.1,0a6,6,0,0,0,4.84-2Q1225.27,446.67,1231.84,439.57Zm-120.29-.45c-.09-.7-.17-1.71-.36-2.7q-2.57-12.93-5.17-25.85c-5.13-25.32-10.33-50.63-15.33-76A11.51,11.51,0,0,0,1086,327c-4.58-3.38-9-6.94-13.43-10.53a10.55,10.55,0,0,0-7-2.67q-24.43.09-48.87,0a8,8,0,0,0-6.17,2.61c-4.3,4.45-8.7,8.8-13.29,13.42.24,2.8.4,5.62.74,8.41,1.82,15.14,3.69,30.28,5.52,45.41,2.11,17.45,4.23,34.9,6.23,52.36a7.57,7.57,0,0,0,3.33,5.77c4.84,3.44,9.75,6.81,14.4,10.51,3.45,2.74,7.13,3.6,11.47,3.56,16.54-.17,33.09-.07,49.64-.07,1.29,0,2.59-.06,3.88,0a6.25,6.25,0,0,0,4.9-1.91C1102,449,1106.65,444.2,1111.55,439.12Zm-119.62.78c-.76-7.57-1.51-15-2.25-22.44-.73-7.2-1.19-14.44-2.24-21.6s-.63-14.87-3.2-22.47c-7.76,0-15.23-.13-22.69,0-7.66.17-15.38-.77-22.91.61a80.67,80.67,0,0,0,1.5,24.57l12.69.82a11.31,11.31,0,0,1,.93,2.48c.64,7.73,1.25,15.46,1.77,23.2a33,33,0,0,1-.4,4.79c-5.6.06-10.74.28-15.86.12-5.31-.17-10.74.93-16-.87-.19-1.37-.4-2.37-.45-3.38q-.87-16.26-1.7-32.54c-.63-12.14-1.2-24.28-2-36.41-.19-3,.11-6.23-1.62-9.16L911,345.3l-5.84-2.09c-2-.74-4.36-1-6.08-3.23a14.94,14.94,0,0,1,2.73-.62c14.48,0,29-.05,43.45,0a14.57,14.57,0,0,1,3.5.86c1.21,5.36.16,10.72,2.63,16,5.08,0,10.24.27,15.37.09,5.29-.19,10.71,1,15.83-.85,0-8.67-1.23-19.37-3.09-25.86-6.43-4.4-13.07-8.88-19.63-13.47a11.94,11.94,0,0,0-7.24-2.21q-22.89.09-45.78,0a10.85,10.85,0,0,0-7.78,2.76c-4,3.62-8.15,7.19-12.44,10.51-2.78,2.15-3.54,4.66-3.46,8.06.76,32.84,1.38,65.68,2.07,98.52,0,2,.35,4.06.53,6.07,7.46,4.72,14.67,9.27,21.87,13.84a11.72,11.72,0,0,0,6.51,2.12c17.33-.06,34.66,0,52-.09a8.45,8.45,0,0,0,4.4-1.14C977.72,450,984.84,445.3,991.93,439.9ZM781.06,342.79h69.61c5-7.09,9.68-13.86,14.38-20.65,1.55-2.25,2.26-4.62.67-7.56a23,23,0,0,0-3.49-.6c-2.84-.1-5.68-.05-8.53-.05q-38.76,0-77.54,0c-2.72,0-5.65-.71-8.34,1.41q-2.39,28.19-4.76,56.35-2.12,25.11-4.19,50.21-1.18,14.29-2.19,28.6a27.62,27.62,0,0,0,.46,4.57c1.69.16,3,.39,4.21.39q50.79.13,101.58.2a23.05,23.05,0,0,0,3.77-.64c.36-2.63.83-4.89-.74-7-5.41-7.22-10.65-14.56-16.18-21.66h-26c-4.39,0-8.79.1-13.18,0s-8.7.63-12.85-.59c-1.07-7.91-.09-24.27,1.94-31.43,7.26-.29,14.72,0,22.17-.16s14.87.59,22.14-.5c1.44-7.21,1.47-18.33,0-24.4-2.41-.09-4.94-.26-7.47-.27-10.34,0-20.68,0-31,0a36.19,36.19,0,0,1-5-.72c-1.12-6.6.85-12.82-.5-19.05C793.82,346.6,786.91,346.63,781.06,342.79ZM552.11,343c-.35,2.19-.45,3.48-.78,4.7-8.16,30.17-16.4,60.32-24.46,90.52-1.09,4.11-3.08,6.92-7.08,8.37a19,19,0,0,0-4.14,2.1c-2.39,1.64-3.25,3.83-1.87,6.77h55.67c2.32-5.65,2.32-5.65-1.42-8.56-1.2-.93-2.45-1.83-4-3,1-8.52,3.75-16.61,5.54-24.87,1.86-8.58,4.06-17.09,6.12-25.63,2-8.29,3.83-16.62,6-24.85,2.23-8.43,3.58-17.11,6.58-25.64a106.48,106.48,0,0,1,16.38.1c1.79,3.6,3.34,6.85,5,10,2.06,3.92,2.13,3.9,7.65,2.54,3-13.37,6.06-26.9,8.51-40.6-1.11-.49-1.78-1.05-2.45-1.05-31.26,0-62.52,0-94.14,0-2.9,6.89-4.61,13.91-6.6,20.81-2,7.05-5,13.9-5.82,21.14,3,1.48,5,.58,6.78-1.19,4-4,8.08-7.94,11.86-11.65Zm794.36,30.37a9.87,9.87,0,0,0-2.24-.84q-43.83-.1-87.67-.16c-2.32,0-4.65.15-7,.24a1.74,1.74,0,0,0-.74.2,7.08,7.08,0,0,0-1,1,135.35,135.35,0,0,0,0,22.77,37.3,37.3,0,0,0,4.06.53q45.39,0,90.79,0a19.07,19.07,0,0,0,3.75-.81ZM398.6,396.63c8.75.81,91.33.68,97.2-.11,1.51-6,1.5-17.68,0-23.55a5,5,0,0,0-1.45-.47q-45.33-.08-90.67-.12c-1.28,0-2.57.12-3.86.21a1.79,1.79,0,0,0-.69.29,5.5,5.5,0,0,0-.61.47A74.53,74.53,0,0,0,398.6,396.63Z"/><path class="cls-1" d="M237.86,56.27c-4.36-5.38-9.44-9.07-13.43-14.49a21.42,21.42,0,0,1,3.4-.88c11.59-.68,65.27-.16,70.62.66,1.65,4.64-1.52,9-.76,14.29,6.84,6.65,14.07,13.57,21.88,20.16l28.77-20.67q1.4-6.93,2.71-13.5a9.17,9.17,0,0,1,2.52-.88q34.9,0,69.81.07c.4,0,.8.53,1.58,1.06-2.2,3-5.58,4.39-8.33,6.52s-5.45,3.93-8,5.77c-2.25,7-55.57,372.62-56.52,382.43,4.66,4.31,11.12,6.67,16,11.27-.73.71-1,1.28-1.42,1.34Q327.1,455,287.57,460.58a10.46,10.46,0,0,1-2.65-.42c.08-9.41,2.55-18.39,3.75-27.5s2.84-18.39,4.3-27.58q2.25-14.16,4.52-28.33,2.22-13.77,4.45-27.55t4.44-27.56q2.19-13.77,4.35-27.56c1.44-9.2,2.85-18.39,4.29-27.59s2.89-18.38,4.35-27.56q2.25-14.18,4.52-28.33,2.21-13.78,4.45-27.56c1.48-9.18,3-18.36,4.43-27.55s2.79-18.33,4.13-27.19c-1.83-1.58-2.8-.34-3.74.31-6.37,4.44-12.68,8.95-19,13.41-1.89,1.33-3.83,2.57-6,4-1.55-1.06-3.08-1.95-4.43-3.05-4.81-3.92-9.54-7.95-14.35-11.87a52.18,52.18,0,0,0-4.4-2.83c-5.37,29.08-9.89,57.63-14.83,86.11-4.91,28.26-9.68,56.55-14.48,84.83q-7.25,42.79-14.44,85.62-7.2,42.38-14.52,84.69a19.12,19.12,0,0,1-3.22,1.23q-39.65,7.08-79.22,14.08c-1.09-1.88.43-2.48,1.26-3.19,5.12-4.35,10.25-8.7,15.5-12.9a11,11,0,0,0,4.25-7.07q6.22-35.52,12.63-71,8.88-49.61,17.8-99.2,8.15-45.39,16.3-90.8t16.29-90.8Z"/><path class="cls-1" d="M1343.63,170.29a30.27,30.27,0,0,1,4,2.31q31.28,26.7,62.52,53.44a10.06,10.06,0,0,1,3.62,6.53c1.83,12,3.85,24,5.76,36q5.77,36.38,11.52,72.76,5.12,32.16,10.26,64.31c.82,5.08,1.69,10.15,2.49,15,6.09,2.12,46.27,8.14,54.26,8.14a35.34,35.34,0,0,0-.22-3.61q-9.4-55.42-18.83-110.84-7.32-43.2-14.55-86.4c-1.54-9.21-1.4-9.3-8.66-15.48q-57.32-48.78-114.69-97.48c-1-.83-1.94-1.71-3-2.47a9.68,9.68,0,0,1-4-7.11c-1.91-14.35-4.26-28.64-6-43-.57-4.54-2.32-7.64-6.22-9.93-3.56-2.09-6.88-4.59-10.26-7a35.92,35.92,0,0,1-2.79-2.38c.65-.61,1-1.2,1.32-1.2,66.15-.44,132.3-.08,198.16-.19,1.13,2.12-.1,3-.94,3.8-4,4-8,8-12.34,12.38,1.06,6.8,2.12,13.65,3.17,20.4-2.53,1.86-5.2,1.12-7.71,1.09q-45-.67-90-1.42c-3.31,0-6.69-.66-9.91.49-1.3,2.68-.41,5.24,0,7.72.68,4.33.67,9.15,2.72,12.77s6.17,6.08,9.49,8.94q57,49.08,114.2,98.06a19.47,19.47,0,0,1,6.91,12.34c6.76,38.43,13.87,76.8,20.84,115.2q11.16,61.41,22.26,122.83c.27,1.53.57,3,.77,4.59a11.06,11.06,0,0,0,4.52,7.75c5.32,4.11,10.44,8.48,15.58,12.81a44.14,44.14,0,0,1,3.65,4.13c-75.68-14.12-150.37-26.07-225.15-36-.83-2.16.55-2.72,1.56-3.37,4.56-2.93,9.16-5.8,14.14-8.94-1.5-14.91-4.15-29.62-6.13-44.41s-4.25-29.68-6.41-44.52-4.34-29.66-6.52-44.49l-6.39-43.74q-3.26-22.25-6.49-44.5C1347.91,200.81,1345.85,186,1343.63,170.29Z"/><path class="cls-1" d="M405.88,304.11c1.15-1,2.25-2,3.45-2.89,4.14-3.09,8.23-6.26,12.5-9.18,2.8-1.9,4-4.26,4.43-7.64q6.94-54.22,14.18-108.4,6.63-50,13.36-99.91c.79-5.88,1.52-11.76,2.33-18,7.6-5.27,15.19-10.62,22.88-15.81a10.86,10.86,0,0,1,4.36-1.35,31.32,31.32,0,0,1,4.65-.09c35.68,0,71.37.08,107.06-.09,5.21,0,9.45,1.16,13.37,4.66,4.62,4.11,9.64,7.77,14.81,11.88-1.24,18.31-2.9,36.55-4.45,54.79q-2.37,27.83-4.63,55.65c-1.52,18.29-3.07,36.58-4.55,54.87s-2.92,36.57-4.38,54.93c2.31,3,5.77,4.42,8.6,6.6s6.16,3.46,8.75,6.64a11.49,11.49,0,0,1-2.56.89c-26,1.4-52.06,2.75-77.85,4.11-2.12-2.41-1.22-4.83-1-7,1.13-12.1,2.4-24.18,3.64-36.27q1.94-18.9,3.88-37.8,2.1-20.44,4.15-40.89c.3-3,1.1-6.09,0-9.12-5.88.46-41.78,9.36-50.37,12.45-1.69,4.54-5.2,32.38-8.06,60.46-2.06,20.28-4.62,40.51-7,61.09-9.21,1.92-18.21,1.93-27.14,2.61s-18,1.55-27.05,2.26-18,1.35-27,2ZM513.33,75.81c-2.61,22.09-5.18,43.84-7.73,65.59a28.91,28.91,0,0,0-.1,3.09,1.54,1.54,0,0,0,.21.71,11.91,11.91,0,0,0,.92,1.18c16.38-4,33.09-8,49.93-12.44,2.54-18.82,3.81-37.34,5.92-55.76a11.38,11.38,0,0,0-.34-2.81C555.6,74.2,521,74.46,513.33,75.81Z"/><path class="cls-1" d="M1230.4,165.33l-49.32,9.73c.8,13.84,2.48,27.12,3.83,40.42,1.33,13.12,2.46,26.26,3.84,39.38,1.39,13.32,2.85,26.63,4,40.36-5.88,1.23-11.21-.37-16.54-.38s-10.85-.4-16.28-.68-10.84-.66-16.26-1-10.86-.47-16.28-.77-10.76-.67-16-1a4.67,4.67,0,0,1-.22-1.07,1.07,1.07,0,0,1,.37-.63c5.24-3.77,10.49-7.52,16.2-11.61-1.14-18.09-2.86-36.33-4.4-54.59-1.58-18.55-3.08-37.11-4.62-55.67q-2.26-27.45-4.53-54.89c-1.48-18.29-2.9-36.59-4.37-55.15,1.28-1.21,2.49-2.52,3.87-3.61,4.67-3.69,9.44-7.25,14.08-11a10.43,10.43,0,0,1,7.13-2.44c4.14.11,8.28,0,12.42,0,32.59,0,65.19.08,97.78-.08a20.72,20.72,0,0,1,13.61,4.3c5.72,4.43,11.77,8.41,17.75,12.63.46,2.09,1,4.08,1.32,6.11,2.29,17.17,4.5,34.35,6.76,51.52q3.55,26.91,7.14,53.82,3.45,26.15,6.85,52.29,3.49,26.54,7,53.06c.44,3.33.87,6.67,1.22,10a9.72,9.72,0,0,0,4.6,7.6c4.74,3.13,9.23,6.65,13.85,10a26.26,26.26,0,0,0,2.6,1.49c-1,1.12-1.31,1.73-1.61,1.74-6.64.07-75.11-5.72-80-6.78-3.09-21.76-5.21-43.85-7.86-65.86S1233.3,188.52,1230.4,165.33Zm-58.91-90.14c-.45,7.47,5.24,63.27,7.1,69.64,8.18-.7,16.14-2.87,24.17-4.59s16.16-2.58,24.12-5.63c-1.1-10.1-1.93-19.84-3.3-29.51-1.39-9.86-1.59-19.91-3.93-29.43C1212.47,74.55,1179.28,74.23,1171.49,75.19Z"/><path class="cls-1" d="M781.4,73.5c-16.75-.29-32.68-.29-49.09.28-2,20-2.06,39.57-3.23,59.1q-1.77,29.81-2.8,59.65c-.69,19.58-2.29,39.13-2.37,59,6.17,1.36,11.81.17,17.41.2s11.37-.19,17.06-.29l16.68-.27c2.34-2.57,1.65-5.29,1.72-7.78.66-21.71,1.23-43.42,1.84-65.13,0-1.8.21-3.6.33-5.67a16.54,16.54,0,0,1,3.37-1.63q26.88-5.92,53.77-11.71c1.22-.26,2.47-.31,4.3-.53.06,3.16.18,6,.15,8.77q-.43,46.94-.92,93.86a31.31,31.31,0,0,1-.1,4.65c-.75,4.51,1.39,7.18,5.05,9.44a167.57,167.57,0,0,1,14.25,9.82,30.49,30.49,0,0,1-4.56.94c-7.75.13-15.51.13-23.27.26-44.2.75-88.41,1.44-132.62,2.32-17.06.34-34.11,1.14-51.17,1.7-2,.07-4,0-5.85,0a4.28,4.28,0,0,1-.42-1.14.86.86,0,0,1,.34-.59c5.71-4,11.43-8,17.52-12.2Q666.16,165.78,673.54,55c-4.74-5.12-10.74-8-15.16-12.67.63-.55,1-1.16,1.37-1.16q97.72-.18,195.46-.24a21.8,21.8,0,0,1,3.64.74c-5.29,5.59-11.79,8.43-17.18,13.59q-.39,25-.81,51.11a28.77,28.77,0,0,1-4.27,1.73q-25,5.58-50,11a45.56,45.56,0,0,1-5.48.49c-1.49-5.14-.33-10-.27-14.84.07-5.17.4-10.33.49-15.5C781.47,84.33,781.4,79.43,781.4,73.5Z"/><path class="cls-1" d="M1071.41,216.24c-7.84,7.9-80.79,66.92-87.46,70.73-30.41-23.74-60.27-48.45-90.88-72.72-2.31-53.06-1.18-106.08-2.7-159.54-4.22-4.44-10.34-7-15.38-12.19a18.83,18.83,0,0,1,3.19-.87c22-1.13,43.93-.8,65.91-.8,2.28,0,4.56.25,7.34.41.27,2.27.65,4.23.71,6.2q.74,21.72,1.34,43.44c.75,26.63,1.43,53.26,2.2,79.89.32,10.85.82,21.68,1.25,32.84q12.93,10.55,25.69,20.94c5.38-2.78,18.38-13.35,25.8-21q-3.74-80.26-7.53-161.75a25.64,25.64,0,0,1,4.73-1c16.55-.07,33.11-.15,49.66,0,6.44.06,12.87.72,19.31,1.11.8,1.62-.5,2.27-1.45,3-4,3.2-8.11,6.36-12.45,9.76Q1066.07,135.76,1071.41,216.24Z"/><path class="cls-1" d="M653.44,329c-3.83-2.89-6.89-5.24-10-7.54a4,4,0,0,1-1.49-4.11c.22-1.71,1-2.93,2.8-3.19a21.19,21.19,0,0,1,3.09-.18q18.63,0,37.25,0a44.38,44.38,0,0,1,4.88.61c.11,8.55-2.16,16.55-3.17,24.69s-2.4,16.32-3.62,24.41c5.73,1.46,18.44,1.67,27.18.48,1.91-8.08,2.2-16.61,3.58-24.95,1.34-8.1,1.62-16.38,3.57-24.22,6-1.3,24.32-1.48,33.17-.34a25.25,25.25,0,0,1,.27,4.21c-1.44,15.18-3,30.37-4.44,45.55q-1.86,18.92-3.7,37.83-2.47,25.09-5,50.18a11.34,11.34,0,0,1-.65,2.12c-5.07,1.51-27,1.84-37,.57-1.6-1.75-.83-3.89-.58-5.82,1.69-13.34,3.52-26.66,5.26-40,.57-4.33,1-8.67,1.51-12.94-5.83-1.65-21.4-1.72-28.15-.12-3.52,19.32-5.83,39-9.46,58.79-4.33,1.27-8.46.6-12.51.7s-8.28.07-12.41,0-8.23.27-12.83-.4a50.63,50.63,0,0,1,.36-6.32q9.48-51.48,19.07-102.94C651.48,340.51,652.4,334.93,653.44,329Z"/><path class="cls-1" d="M1231.84,439.57q-6.58,7.11-13.15,14.17a6,6,0,0,1-4.84,2c-1-.05-2.07,0-3.1,0h-76.17a23.26,23.26,0,0,1-1.93-4.23q-14.6-66.94-29.07-133.92a12.76,12.76,0,0,1-.12-2.06c1.08-1.84,2.75-1.58,4.24-1.58,22,0,43.91,0,65.86-.07a12.24,12.24,0,0,1,7.81,2.79c4.51,3.46,9,6.93,13.73,10.1a14.45,14.45,0,0,1,5.94,8.62c7,23.77,14.2,47.47,21.33,71.2q4.23,14.08,8.4,28.2C1231.2,436.25,1231.44,437.76,1231.84,439.57Zm-66.9-10.27c9.28,0,17.53,0,25.79,0,.41,0,.82-.51,1.23-.78-.77-7.05-21-81.85-23.92-88.1a19.05,19.05,0,0,0-2.82-.38q-20.15,0-40.29.07c-.25,0-.6.05-.71.21s0,.5,0,1.07c6.21,2.8,13.35,3.07,20.1,6,3.31,13.42,6.53,27,10,40.42C1157.91,401.49,1160.75,415.37,1164.94,429.3Z"/><path class="cls-1" d="M1111.55,439.12c-4.9,5.08-9.55,9.9-14.21,14.71a6.25,6.25,0,0,1-4.9,1.91c-1.29-.05-2.59,0-3.88,0-16.55,0-33.1-.1-49.64.07-4.34,0-8-.82-11.47-3.56-4.65-3.7-9.56-7.07-14.4-10.51a7.57,7.57,0,0,1-3.33-5.77c-2-17.46-4.12-34.91-6.23-52.36-1.83-15.13-3.7-30.27-5.52-45.41-.34-2.79-.5-5.61-.74-8.41,4.59-4.62,9-9,13.29-13.42a8,8,0,0,1,6.17-2.61q24.43.09,48.87,0a10.55,10.55,0,0,1,7,2.67c4.41,3.59,8.85,7.15,13.43,10.53a11.51,11.51,0,0,1,4.66,7.63c5,25.34,10.2,50.65,15.33,76q2.63,12.92,5.17,25.85C1111.38,437.41,1111.46,438.42,1111.55,439.12Zm-53.72-98.52c-6.27-1.06-30.29-1.4-45.31-.68-.3,0-.58.6-1.13,1.2,7.16,4.16,15.48,5.54,22.49,9.76,4.32,26.12,7.6,52.18,12,77.86,7.25,1.21,20.65,1.18,27.16-.07C1068.13,399.23,1063.08,369.81,1057.83,340.6Z"/><path class="cls-1" d="M991.93,439.9c-7.09,5.4-14.21,10.06-21.37,14.64a8.45,8.45,0,0,1-4.4,1.14c-17.33.08-34.66,0-52,.09a11.72,11.72,0,0,1-6.51-2.12c-7.2-4.57-14.41-9.12-21.87-13.84-.18-2-.49-4-.53-6.07-.69-32.84-1.31-65.68-2.07-98.52-.08-3.4.68-5.91,3.46-8.06,4.29-3.32,8.4-6.89,12.44-10.51a10.85,10.85,0,0,1,7.78-2.76q22.89.14,45.78,0a11.94,11.94,0,0,1,7.24,2.21c6.56,4.59,13.2,9.07,19.63,13.47,1.86,6.49,3.14,17.19,3.09,25.86-5.12,1.83-10.54.66-15.83.85-5.13.18-10.29-.05-15.37-.09-2.47-5.25-1.42-10.61-2.63-16a14.57,14.57,0,0,0-3.5-.86c-14.48-.07-29-.05-43.45,0a14.94,14.94,0,0,0-2.73.62c1.72,2.23,4,2.49,6.08,3.23L911,345.3l6.52,2.36c1.73,2.93,1.43,6.13,1.62,9.16.75,12.13,1.32,24.27,2,36.41q.85,16.27,1.7,32.54c.05,1,.26,2,.45,3.38,5.27,1.8,10.7.7,16,.87,5.12.16,10.26-.06,15.86-.12a33,33,0,0,0,.4-4.79c-.52-7.74-1.13-15.47-1.77-23.2a11.31,11.31,0,0,0-.93-2.48l-12.69-.82a80.67,80.67,0,0,1-1.5-24.57c7.53-1.38,15.25-.44,22.91-.61,7.46-.17,14.93,0,22.69,0,2.57,7.6,2.11,15.17,3.2,22.47s1.51,14.4,2.24,21.6C990.42,424.9,991.17,432.33,991.93,439.9Z"/><path class="cls-1" d="M781.06,342.79c5.85,3.84,12.76,3.81,19,6.42,1.35,6.23-.62,12.45.5,19.05a36.19,36.19,0,0,0,5,.72c10.34.07,20.68,0,31,0,2.53,0,5.06.18,7.47.27,1.43,6.07,1.4,17.19,0,24.4-7.27,1.09-14.73.34-22.14.5s-14.91-.13-22.17.16c-2,7.16-3,23.52-1.94,31.43,4.15,1.22,8.54.46,12.85.59s8.79,0,13.18,0h26c5.53,7.1,10.77,14.44,16.18,21.66,1.57,2.09,1.1,4.35.74,7a23.05,23.05,0,0,1-3.77.64q-50.79-.06-101.58-.2c-1.26,0-2.52-.23-4.21-.39a27.62,27.62,0,0,1-.46-4.57q1-14.31,2.19-28.6,2.05-25.11,4.19-50.21,2.37-28.17,4.76-56.35c2.69-2.12,5.62-1.4,8.34-1.41q38.77-.09,77.54,0c2.85,0,5.69-.05,8.53.05a23,23,0,0,1,3.49.6c1.59,2.94.88,5.31-.67,7.56-4.7,6.79-9.43,13.56-14.38,20.65Z"/><path class="cls-1" d="M552.11,343H535.43c-3.78,3.71-7.83,7.67-11.86,11.65-1.8,1.77-3.77,2.67-6.78,1.19.86-7.24,3.79-14.09,5.82-21.14,2-6.9,3.7-13.92,6.6-20.81,31.62,0,62.88,0,94.14,0,.67,0,1.34.56,2.45,1.05-2.45,13.7-5.5,27.23-8.51,40.6-5.52,1.36-5.59,1.38-7.65-2.54-1.68-3.19-3.23-6.44-5-10a106.48,106.48,0,0,0-16.38-.1c-3,8.53-4.35,17.21-6.58,25.64-2.18,8.23-4,16.56-6,24.85-2.06,8.54-4.26,17.05-6.12,25.63-1.79,8.26-4.52,16.35-5.54,24.87,1.59,1.18,2.84,2.08,4,3,3.74,2.91,3.74,2.91,1.42,8.56H513.78c-1.38-2.94-.52-5.13,1.87-6.77a19,19,0,0,1,4.14-2.1c4-1.45,6-4.26,7.08-8.37,8.06-30.2,16.3-60.35,24.46-90.52C551.66,346.49,551.76,345.2,552.11,343Z"/><path class="cls-1" d="M1346.47,373.38v22.89a19.07,19.07,0,0,1-3.75.81q-45.4.07-90.79,0a37.3,37.3,0,0,1-4.06-.53,135.35,135.35,0,0,1,0-22.77,7.08,7.08,0,0,1,1-1,1.74,1.74,0,0,1,.74-.2c2.32-.09,4.65-.24,7-.24q43.83.06,87.67.16A9.87,9.87,0,0,1,1346.47,373.38Z"/><path class="cls-1" d="M398.6,396.63a74.53,74.53,0,0,1-.11-23.28,5.5,5.5,0,0,1,.61-.47,1.79,1.79,0,0,1,.69-.29c1.29-.09,2.58-.21,3.86-.21q45.35,0,90.67.12a4.76,4.76,0,0,1,1.45.48c1.53,5.86,1.54,17.53,0,23.54C489.93,397.31,407.35,397.44,398.6,396.63Z"/><path d="M513.33,75.81c7.71-1.35,42.27-1.61,48.81-.44a11.38,11.38,0,0,1,.34,2.81c-2.11,18.42-3.38,36.94-5.92,55.76-16.84,4.41-33.55,8.4-49.93,12.44a11.91,11.91,0,0,1-.92-1.18,1.54,1.54,0,0,1-.21-.71,28.91,28.91,0,0,1,.1-3.09C508.15,119.65,510.72,97.9,513.33,75.81Z"/><path d="M1171.49,75.19c7.79-1,41-.64,48.16.48,2.34,9.52,2.54,19.57,3.93,29.43,1.37,9.67,2.2,19.41,3.3,29.51-8,3-16.16,3.92-24.12,5.63s-16,3.89-24.17,4.59C1176.73,138.46,1171,82.66,1171.49,75.19Z"/><path d="M1164.94,429.3c-4.19-13.93-7-27.81-10.58-41.51-3.48-13.46-6.7-27-10-40.42-6.75-2.95-13.89-3.22-20.1-6,0-.57-.15-.9,0-1.07s.46-.21.71-.21q20.14,0,40.29-.07a19.05,19.05,0,0,1,2.82.38c2.89,6.25,23.15,81.05,23.92,88.1-.41.27-.82.78-1.23.78C1182.47,429.31,1174.22,429.3,1164.94,429.3Z"/><path d="M1057.83,340.6c5.25,29.21,10.3,58.63,15.21,88.07-6.51,1.25-19.91,1.28-27.16.07-4.4-25.68-7.68-51.74-12-77.86-7-4.22-15.33-5.6-22.49-9.76.55-.6.83-1.18,1.13-1.2C1027.54,339.2,1051.56,339.54,1057.83,340.6Z"/></g></g></svg>