<svg xmlns="http://www.w3.org/2000/svg" viewBox="0 0 448 384"><defs><style>.cls-1{fill:#fff;}</style></defs><title>Recurso 2</title><g id="Capa_2" data-name="Capa 2"><g id="Capa_1-2" data-name="Capa 1"><path class="cls-1" d="M.08,29.71C1.22,13.34,16.24,0,32.65,0H416a32,32,0,0,1,31.91,34.37C446.74,50.7,431.72,64,415.35,64H32A32,32,0,0,1,.08,29.71ZM0,192a32,32,0,0,1,32-32H415.35c16.41,0,31.44,13.34,32.57,29.71A32,32,0,0,1,416,224H32A32,32,0,0,1,0,192ZM447.92,354.29C446.79,370.66,431.76,384,415.35,384H32a32,32,0,0,1,0-64H416A32,32,0,0,1,447.92,354.29Z"/></g></g></svg>