<svg xmlns="http://www.w3.org/2000/svg" viewBox="0 0 1534.88 253"><defs><style>.cls-1{fill:#97d700;}.cls-2{fill:#89b901;}.cls-3{fill:#7a9a01;}</style></defs><title>NUTRIMED</title><g id="Capa_2" data-name="Capa 2"><g id="Capa_6" data-name="Capa 6"><path class="cls-1" d="M247.75.49l-39.2,196H171.31L98.23,73.85,73.59,196.49H28.79L68,.49h37.52l73.08,122.92L203,.49Z"/><path class="cls-1" d="M289.46,181.51q-21-18.33-21-50.26a113.83,113.83,0,0,1,2.24-21L292.54.49h45.65L316.35,109.41a93.52,93.52,0,0,0-1.69,16.52q0,17.64,9.67,26.46t28.13,8.82q20.73,0,33-12.32t17.92-39.48L425.27.49h44.52L447.66,112.21q-17.91,87.64-100.24,87.64Q310.48,199.85,289.46,181.51Z"/><path class="cls-1" d="M544.55,37.45H481.83l7.56-37h170.8l-7.56,37H590.19l-31.92,159H512.91Z"/><path class="cls-1" d="M826.22,108.29Q811.39,127.9,785.06,136l34.16,60.48H771.34l-30.8-54.88H701.9L691,196.49H645.34l39.2-196h79.8q36.4,0,56.56,16t20.16,44.8Q841.06,88.69,826.22,108.29ZM782.68,95.13q12.47-10.35,12.46-29.68,0-14-9.52-21t-27.16-7H722.62l-13.72,68h38.64Q770.22,105.49,782.68,95.13Z"/><polygon class="cls-1" points="881.04 47 851.14 196.49 896.78 196.49 926.68 47 881.04 47"/><polygon class="cls-2" points="928.41 37 882.41 37 890.41 0 936.41 0 928.41 37"/><polygon class="cls-3" points="1206.24 38.57 1197.84 81.13 1288.84 81.13 1281.84 116.41 1190.56 116.41 1181.6 161.77 1288.56 161.77 1281 198.17 1129.24 198.17 1168.44 2.17 1316.56 2.17 1309 38.57 1206.24 38.57"/><line class="cls-3" x1="910.58" y1="157" x2="910.57" y2="157.02"/><polygon class="cls-3" points="1092.49 2.02 996.73 124.1 947.73 2.02 947.68 2.02 933.73 71.76 977.97 177.3 998.13 177.3 1072.89 81.54 1049.93 198.02 1092.49 198.02 1131.41 2.02 1092.49 2.02"/><path class="cls-3" d="M1523.26,51.34Q1511.64,27.7,1489.94,15T1438.28,2.26h-82L1316.87,198h46.28l31.26-159h40q31.1,0,47.45,18.25t16.35,50.65q0,31.18-10.26,56t-29.66,39Q1438.9,217,1412.61,217H7.2L0,253H1412.8q36.12,0,63.7-18.09t43-51.22q15.4-33.13,15.4-76.83Q1534.88,75,1523.26,51.34Z"/></g></g></svg>